<svg xmlns="http://www.w3.org/2000/svg" viewBox="0 0 1024 1024" role="img" aria-label="5 Sens Collection · Label d'Excellence Sensorielle">
<defs>
<radialGradient id="or" cx="48%" cy="28%" r="80%"><stop offset="0" stop-color="#E6BC55"/><stop offset=".3" stop-color="#CF9E36"/><stop offset=".68" stop-color="#AD7E26"/><stop offset="1" stop-color="#6E4C14"/></radialGradient>
<linearGradient id="reflet" x1="0" y1="0" x2="1" y2="1"><stop offset="0" stop-color="#FFF4C8" stop-opacity=".0"/><stop offset=".32" stop-color="#FFE9A6" stop-opacity=".26"/><stop offset=".5" stop-color="#FFF1BF" stop-opacity="0"/><stop offset=".78" stop-color="#FFE7A0" stop-opacity=".16"/><stop offset="1" stop-color="#FFE7A0" stop-opacity="0"/></linearGradient>
<linearGradient id="bord" x1="0" y1="0" x2="1" y2="1"><stop offset="0" stop-color="#FFF0BE"/><stop offset=".45" stop-color="#C79B45"/><stop offset="1" stop-color="#6F521E"/></linearGradient>
<radialGradient id="rivet" cx="34%" cy="30%" r="72%"><stop offset="0" stop-color="#FFF6CF"/><stop offset=".25" stop-color="#F2C85A"/><stop offset=".68" stop-color="#A9761C"/><stop offset="1" stop-color="#4E3409"/></radialGradient>
<filter id="brosse" x="0" y="0" width="100%" height="100%"><feTurbulence type="fractalNoise" baseFrequency="0.002 0.9" numOctaves="2" seed="5"/><feColorMatrix values="0 0 0 0 1  0 0 0 0 .9  0 0 0 0 .6  0 0 0 .07 0"/><feComposite in2="SourceGraphic" operator="in"/></filter>
<filter id="grave" x="-2%" y="-2%" width="104%" height="104%"><feOffset dy="2" in="SourceAlpha" result="b"/><feFlood flood-color="#FFF0C0" flood-opacity=".5"/><feComposite in2="b" operator="in" result="l"/><feOffset dy="-1" in="SourceAlpha" result="h"/><feFlood flood-color="#1A1206" flood-opacity=".6"/><feComposite in2="h" operator="in" result="o"/><feMerge><feMergeNode in="l"/><feMergeNode in="o"/><feMergeNode in="SourceGraphic"/></feMerge></filter>
<filter id="ombre-rivet" x="-40%" y="-40%" width="180%" height="180%"><feGaussianBlur in="SourceAlpha" stdDeviation="3"/><feOffset dx="3" dy="5"/><feComponentTransfer><feFuncA type="linear" slope=".45"/></feComponentTransfer><feMerge><feMergeNode/><feMergeNode in="SourceGraphic"/></feMerge></filter>
</defs>
<circle cx="512" cy="512" r="510" fill="url(#bord)"/>
<circle cx="512" cy="512" r="498" fill="url(#or)"/>
<circle cx="512" cy="512" r="498" fill="url(#reflet)"/>
<circle cx="512" cy="512" r="498" fill="#fff" filter="url(#brosse)"/>
<circle cx="512" cy="512" r="492" fill="none" stroke="#FCE9B2" stroke-opacity=".5" stroke-width="2"/>
<g filter="url(#ombre-rivet)"><circle cx="174" cy="215" r="27" fill="url(#rivet)"/><circle cx="850" cy="211" r="27" fill="url(#rivet)"/><circle cx="205" cy="850" r="27" fill="url(#rivet)"/><circle cx="823" cy="850" r="27" fill="url(#rivet)"/></g>
<ellipse cx="166" cy="205" rx="7" ry="5" fill="#FFFDF0" opacity=".85"/><ellipse cx="842" cy="201" rx="7" ry="5" fill="#FFFDF0" opacity=".85"/><ellipse cx="197" cy="840" rx="7" ry="5" fill="#FFFDF0" opacity=".85"/><ellipse cx="815" cy="840" rx="7" ry="5" fill="#FFFDF0" opacity=".85"/>
<path d="M216.43 758.73 C215.43 758.59 215.12 757.45 215.85 756.64 C216.17 756.29 216.62 756.00 216.83 756.00 C217.67 756.00 218.40 754.73 218.30 753.44 C218.16 751.72 218.64 748.62 219.14 748.00 C220.09 746.82 220.64 744.55 220.99 740.43 C221.32 736.48 221.48 735.76 222.53 733.54 C224.12 730.20 224.02 729.17 222.00 728.00 C220.90 727.36 220.47 726.89 220.39 726.23 C220.24 724.95 221.09 724.76 226.07 724.98 C229.53 725.13 230.42 725.28 230.91 725.76 C231.48 726.33 231.44 726.41 230.07 727.68 C228.74 728.91 228.64 729.12 228.70 730.59 C228.78 732.74 228.18 736.36 227.52 737.62 C226.85 738.93 226.43 741.08 226.02 745.46 C225.79 747.90 225.45 749.39 224.85 750.69 C223.80 752.93 223.80 753.17 224.82 754.18 C225.54 754.90 225.93 755.00 228.09 755.00 C229.44 755.00 231.29 754.79 232.19 754.53 C233.09 754.28 234.25 753.97 234.77 753.86 C235.35 753.73 235.96 753.21 236.37 752.51 C237.55 750.52 240.33 750.18 240.33 752.03 C240.33 753.16 238.70 757.16 238.00 757.73 C237.63 758.04 236.53 758.38 235.57 758.48 C233.69 758.69 217.64 758.90 216.43 758.73 Z M248.29 758.73 C247.52 758.40 245.11 756.17 244.69 755.38 C244.49 755.01 244.33 753.15 244.33 751.23 L244.33 747.76 L245.67 745.79 C246.40 744.72 247.00 743.55 247.00 743.20 C247.00 742.67 248.02 741.34 250.42 738.72 C250.65 738.48 251.61 737.63 252.57 736.84 C254.15 735.53 254.55 735.37 257.19 735.00 C261.68 734.36 266.99 735.39 267.50 736.99 C267.88 738.21 267.30 741.08 266.30 742.84 C265.50 744.26 265.29 745.14 265.01 748.35 C264.82 750.45 264.67 752.35 264.67 752.58 C264.67 752.80 265.27 753.29 266.00 753.67 C266.78 754.07 267.33 754.58 267.33 754.92 C267.33 755.24 266.51 756.21 265.52 757.08 C263.94 758.47 263.53 758.67 262.22 758.67 C259.94 758.67 259.67 758.47 259.67 756.82 C259.67 753.32 258.70 753.48 254.31 757.75 C253.09 758.93 252.92 759.00 250.93 758.98 C249.78 758.96 248.59 758.85 248.29 758.73 Z M274.73 758.67 C273.25 758.32 272.08 757.18 271.13 755.17 C270.09 752.96 270.12 752.35 271.49 749.16 C272.62 746.54 272.66 746.31 272.77 741.42 C272.86 737.70 273.02 736.18 273.39 735.61 C274.12 734.46 275.67 730.43 275.67 729.66 C275.67 729.30 275.14 728.42 274.50 727.71 C273.26 726.34 273.11 725.80 273.76 725.00 C274.54 724.04 276.51 722.77 277.50 722.58 C278.74 722.35 280.54 723.06 280.79 723.89 C280.90 724.22 280.78 726.30 280.53 728.50 C280.18 731.58 279.87 732.91 279.17 734.29 C278.09 736.42 277.74 738.45 278.33 739.16 C279.06 740.05 279.95 739.75 280.64 738.39 C281.51 736.68 283.38 735.08 284.83 734.81 C286.06 734.58 288.56 734.85 289.89 735.35 C291.11 735.82 292.33 738.93 292.33 741.57 C292.33 744.01 290.98 748.32 289.46 750.73 C288.04 752.98 284.99 755.84 283.50 756.33 C282.76 756.57 281.60 757.26 280.92 757.88 C279.79 758.89 279.48 759.00 277.75 758.97 C276.70 758.95 275.34 758.81 274.73 758.67 Z M301.60 758.70 C300.04 758.53 299.51 758.30 298.64 757.41 C298.06 756.82 297.47 756.33 297.32 756.33 C297.17 756.33 296.79 755.62 296.47 754.75 C296.15 753.88 295.69 752.93 295.44 752.64 C294.17 751.13 295.71 745.27 298.47 741.08 C299.62 739.34 300.70 738.21 302.43 736.96 L304.81 735.23 L308.08 735.07 C313.36 734.81 314.66 735.78 314.66 739.95 C314.67 741.29 314.51 741.56 312.55 743.49 C310.84 745.17 310.10 745.66 308.75 745.98 C307.83 746.20 306.74 746.73 306.34 747.16 C305.84 747.70 305.07 748.00 303.81 748.16 C300.90 748.52 300.50 749.41 301.61 753.00 C302.08 754.50 302.39 754.94 303.34 755.42 C305.07 756.29 306.09 756.15 307.67 754.83 C308.44 754.19 309.43 753.59 309.87 753.50 C312.45 752.97 312.24 752.90 312.03 754.26 C311.86 755.31 311.62 755.60 310.44 756.17 C309.68 756.54 308.69 757.18 308.24 757.59 C307.36 758.43 305.63 759.03 304.34 758.95 C303.88 758.92 302.65 758.81 301.60 758.70 Z M318.26 758.31 C316.77 757.45 316.90 751.83 318.47 748.73 C319.38 746.93 319.99 743.85 320.00 741.08 C320.00 739.81 320.28 738.75 321.01 737.25 C322.07 735.05 323.16 730.02 322.84 728.76 C322.74 728.35 322.17 727.76 321.58 727.46 C319.60 726.45 319.67 725.79 321.86 724.50 C322.67 724.03 323.33 723.52 323.33 723.37 C323.33 722.98 324.90 722.33 325.84 722.33 C326.34 722.33 326.86 722.66 327.21 723.18 C327.71 723.95 327.72 724.42 327.34 728.10 C327.11 730.34 326.71 732.79 326.46 733.55 C325.82 735.45 325.45 737.55 325.02 741.67 C324.49 746.69 324.08 748.60 323.12 750.55 C321.92 753.01 322.12 754.04 323.92 754.66 C324.70 754.93 325.33 755.27 325.33 755.42 C325.33 756.33 324.25 758.05 323.49 758.34 C322.38 758.76 319.01 758.75 318.26 758.31 Z M346.33 758.43 C345.56 758.15 344.32 756.93 343.81 755.95 C342.88 754.16 342.72 752.42 343.16 748.80 C343.52 745.85 343.73 745.13 344.43 744.39 C344.88 743.90 345.52 742.98 345.84 742.33 C346.60 740.84 351.17 736.38 352.55 735.80 C354.79 734.85 356.53 734.65 358.01 735.17 C358.79 735.44 359.63 735.67 359.89 735.67 C360.64 735.67 362.00 734.11 362.00 733.25 C362.00 732.82 362.38 731.95 362.83 731.33 C363.29 730.71 363.67 729.79 363.67 729.29 C363.67 728.77 363.30 727.98 362.83 727.47 C362.38 726.97 362.00 726.44 362.00 726.29 C362.00 725.89 364.65 724.02 365.53 723.80 C366.40 723.58 368.17 724.41 368.46 725.18 C368.97 726.52 368.43 729.97 367.17 733.33 C366.86 734.16 366.49 736.20 366.34 737.88 C366.13 740.21 365.83 741.43 365.04 743.07 C364.36 744.50 363.97 745.92 363.87 747.29 C363.78 748.43 363.46 750.10 363.16 751.01 C362.36 753.43 362.53 753.80 364.50 754.00 C365.93 754.14 366.18 754.28 366.28 754.94 C366.36 755.50 366.00 756.09 365.02 757.02 C363.39 758.57 362.44 758.86 360.37 758.46 L358.83 758.17 L358.73 756.18 C358.62 753.94 358.27 753.33 357.12 753.33 C356.49 753.33 356.27 753.56 356.11 754.37 C355.98 755.01 355.25 756.02 354.20 757.03 L352.50 758.67 L349.67 758.64 C348.11 758.63 346.61 758.53 346.33 758.43 Z M382.05 758.22 C381.04 757.77 381.29 757.29 382.96 756.49 C384.60 755.70 384.99 755.20 385.00 753.83 C385.01 752.81 385.44 751.26 386.63 747.96 C387.00 746.93 387.39 744.85 387.48 743.34 C387.71 739.70 387.94 738.51 388.86 736.43 C389.27 735.48 389.78 733.59 389.99 732.23 C390.45 729.22 390.14 728.34 388.33 727.54 C387.64 727.23 386.98 726.77 386.88 726.51 C386.65 725.89 387.38 725.33 388.37 725.36 C388.81 725.38 393.33 725.44 398.41 725.49 C408.56 725.60 409.83 725.73 410.33 726.66 C410.77 727.48 410.76 730.53 410.32 731.36 C409.79 732.34 409.19 732.14 407.87 730.53 C406.30 728.61 404.22 727.87 400.33 727.85 C396.80 727.83 395.63 728.37 395.06 730.27 C394.84 730.99 394.67 731.93 394.67 732.37 C394.67 732.81 394.41 734.18 394.10 735.41 L393.52 737.65 L394.65 738.81 C396.17 740.38 397.25 740.56 399.77 739.66 C401.19 739.15 402.20 738.52 403.03 737.61 C404.10 736.42 404.26 736.35 404.67 736.84 C405.06 737.30 405.04 737.54 404.57 738.44 C404.27 739.02 403.85 740.25 403.65 741.17 C402.88 744.66 402.53 745.50 401.78 745.60 C401.22 745.68 400.98 745.45 400.66 744.49 C400.15 742.92 398.60 741.92 397.40 742.37 C396.93 742.55 396.16 742.62 395.69 742.53 C395.22 742.44 394.31 742.54 393.68 742.77 C392.75 743.09 392.48 743.40 392.28 744.33 C392.14 744.98 392.11 745.96 392.20 746.52 C392.30 747.08 392.15 748.46 391.86 749.57 C391.57 750.69 391.31 752.24 391.28 753.02 C391.23 754.22 391.37 754.56 392.19 755.23 C393.13 755.99 393.31 756.01 397.00 755.81 C400.25 755.63 401.15 755.45 402.91 754.64 C404.32 753.98 405.14 753.37 405.48 752.70 C406.08 751.54 407.15 751.10 407.88 751.70 C408.59 752.30 408.26 753.64 406.92 755.54 C404.89 758.43 405.54 758.29 393.48 758.43 C386.88 758.50 382.51 758.42 382.05 758.22 Z M411.58 758.31 C410.35 757.59 411.14 754.97 412.79 754.28 C413.84 753.85 418.67 749.38 418.67 748.85 C418.67 748.69 419.04 748.07 419.50 747.47 C420.99 745.52 421.12 744.76 420.12 743.76 C419.65 743.28 419.03 742.35 418.76 741.69 C418.49 741.04 417.75 740.03 417.13 739.46 C415.12 737.60 415.79 735.68 418.53 735.43 C420.14 735.29 420.19 735.31 421.53 736.90 C422.29 737.78 423.15 738.99 423.46 739.59 C423.92 740.47 424.21 740.67 425.12 740.67 C425.96 740.67 426.33 740.46 426.67 739.82 C426.92 739.36 427.58 738.69 428.15 738.35 C428.71 738.00 429.61 737.25 430.15 736.69 C431.99 734.76 434.23 735.62 433.89 738.13 C433.67 739.81 432.97 740.33 430.99 740.33 C429.79 740.33 429.12 740.56 428.04 741.34 C425.67 743.06 425.34 745.07 427.18 746.55 C428.23 747.39 428.40 747.75 428.68 749.72 C429.08 752.60 429.52 753.52 430.89 754.32 C431.50 754.68 432.00 755.11 432.00 755.27 C432.00 755.96 429.94 758.34 429.17 758.53 C426.51 759.20 424.00 756.15 424.00 752.25 C424.00 750.28 423.47 749.33 422.38 749.33 C421.65 749.33 419.59 751.46 418.83 753.00 C418.51 753.64 417.82 754.62 417.29 755.17 C416.77 755.72 415.82 756.73 415.20 757.42 C414.02 758.72 412.80 759.02 411.58 758.31 Z M440.96 758.34 C439.81 758.00 437.45 755.69 436.99 754.47 C436.10 752.14 436.81 744.98 438.10 743.26 C438.55 742.66 439.23 741.57 439.59 740.83 C439.96 740.10 441.18 738.63 442.29 737.57 L444.32 735.63 L446.22 735.73 C447.26 735.79 448.17 735.99 448.23 736.18 C448.29 736.37 447.61 737.08 446.71 737.77 C445.54 738.66 444.59 739.86 443.37 741.97 L441.67 744.92 L441.67 749.25 C441.67 754.01 441.93 754.76 444.01 755.84 C445.64 756.68 446.95 756.48 448.13 755.19 C449.50 753.69 450.93 753.12 451.61 753.80 C452.05 754.24 452.04 754.39 451.56 755.12 C451.26 755.58 450.68 756.06 450.26 756.19 C449.84 756.32 448.94 756.93 448.25 757.54 C447.05 758.62 446.90 758.67 444.42 758.64 C443.00 758.62 441.44 758.49 440.96 758.34 Z M461.91 758.33 C461.40 758.18 460.56 757.63 460.04 757.11 C459.52 756.59 458.76 755.94 458.36 755.67 C457.73 755.24 457.61 754.77 457.45 752.23 C457.17 747.64 457.71 745.38 459.83 742.19 C462.02 738.89 465.59 735.67 467.04 735.67 C468.67 735.67 468.62 736.55 466.88 738.14 C466.03 738.92 465.33 739.85 465.33 740.20 C465.33 740.55 464.66 741.56 463.83 742.45 C462.26 744.14 462.05 744.81 462.78 745.81 C463.15 746.32 463.56 746.40 465.34 746.27 C467.27 746.13 467.53 746.02 468.31 744.99 C468.78 744.37 469.73 743.21 470.42 742.41 C471.92 740.67 472.00 739.65 470.79 737.86 C470.13 736.89 469.99 736.43 470.24 736.03 C470.99 734.82 474.61 735.38 475.26 736.80 C475.91 738.24 476.08 739.93 475.68 741.14 C475.12 742.83 472.51 745.21 470.50 745.88 C469.58 746.18 468.41 746.78 467.89 747.22 C467.27 747.73 466.52 748.00 465.69 748.00 C463.94 748.00 462.40 748.60 462.15 749.38 C461.85 750.32 462.31 753.36 462.88 754.27 C463.73 755.60 465.32 756.33 467.39 756.33 C468.99 756.33 469.32 756.23 469.50 755.68 C469.81 754.69 471.29 753.67 472.41 753.67 C473.33 753.67 473.39 753.74 473.18 754.58 C472.91 755.66 472.61 755.87 471.02 756.17 C470.28 756.31 469.44 756.82 468.79 757.53 C467.77 758.63 467.67 758.67 465.29 758.64 C463.94 758.62 462.42 758.48 461.91 758.33 Z M480.79 758.03 C478.35 756.92 478.13 754.48 480.09 750.36 C480.87 748.73 481.14 747.63 481.25 745.70 C481.34 744.04 481.77 742.02 482.50 739.83 C483.11 738.00 483.71 735.60 483.83 734.50 C483.96 733.36 484.39 731.91 484.84 731.14 C485.90 729.31 485.64 728.44 483.79 727.65 C481.85 726.82 481.79 725.86 483.65 725.30 C484.38 725.08 485.31 724.55 485.71 724.12 C486.74 723.03 487.92 723.09 488.38 724.25 C489.03 725.92 488.41 730.96 486.89 736.20 C486.62 737.13 486.15 740.19 485.84 743.01 C485.52 746.02 485.07 748.54 484.76 749.14 C483.86 750.87 483.35 753.89 483.84 754.56 C484.19 755.05 484.44 755.08 485.45 754.77 C487.20 754.23 487.52 754.82 486.39 756.56 C484.97 758.77 483.35 759.19 480.79 758.03 Z M508.83 758.43 C508.47 758.34 507.40 757.48 506.46 756.52 L504.75 754.77 L504.53 751.97 C504.23 748.14 504.72 744.61 505.72 743.38 C506.15 742.86 506.90 741.74 507.40 740.90 C507.91 740.03 508.92 738.97 509.73 738.46 C510.52 737.96 511.50 737.17 511.91 736.70 C512.57 735.94 512.99 735.82 515.74 735.62 C519.20 735.36 521.27 735.67 521.91 736.54 C522.47 737.32 522.45 741.07 521.87 742.45 C521.28 743.87 520.08 744.80 517.72 745.68 C516.68 746.06 515.43 746.77 514.93 747.24 C514.11 748.02 513.86 748.08 512.10 747.90 C509.96 747.67 509.63 747.79 509.01 748.97 C508.35 750.22 509.17 754.16 510.27 755.02 C512.01 756.39 516.07 756.72 516.73 755.54 C517.49 754.18 519.29 753.46 519.81 754.30 C520.12 754.80 519.65 755.63 518.92 755.86 C518.54 755.98 517.66 756.66 516.96 757.37 L515.69 758.67 L512.60 758.63 C510.89 758.61 509.20 758.52 508.83 758.43 Z M541.11 758.17 C539.69 757.18 539.68 756.24 541.04 750.17 C541.74 747.05 542.31 744.12 542.32 743.67 C542.33 743.21 542.56 742.40 542.84 741.88 C543.87 739.89 543.24 738.33 541.39 738.33 C540.76 738.33 539.17 739.49 538.03 740.77 C537.74 741.10 537.10 741.78 536.61 742.29 C536.13 742.80 535.49 743.78 535.20 744.47 C534.91 745.16 534.21 746.16 533.64 746.70 C532.73 747.54 532.56 747.98 532.32 750.11 C532.17 751.45 531.82 753.06 531.54 753.69 C531.26 754.32 530.95 755.39 530.84 756.07 C530.55 757.86 529.88 758.39 528.08 758.27 C525.87 758.12 525.62 757.49 526.80 755.09 C527.59 753.49 527.78 752.58 527.96 749.65 C528.12 746.91 528.31 745.93 528.83 745.19 C530.63 742.64 530.77 741.41 529.50 739.53 C529.04 738.86 528.67 738.02 528.67 737.68 C528.67 736.18 531.68 735.11 533.36 736.01 C534.17 736.45 534.24 738.66 533.48 739.82 C533.07 740.44 533.04 740.78 533.32 741.31 C533.80 742.20 534.89 742.20 535.18 741.30 C535.30 740.92 535.90 740.40 536.51 740.14 C537.13 739.88 537.90 739.28 538.23 738.81 C539.97 736.32 540.70 735.70 542.21 735.48 C544.08 735.20 545.12 735.64 546.00 737.08 C546.72 738.26 546.89 740.63 546.32 741.68 C546.14 742.04 545.74 743.71 545.45 745.41 C545.12 747.35 544.56 749.16 543.96 750.29 C543.00 752.09 542.79 753.17 543.26 753.87 C543.71 754.55 544.98 755.02 545.83 754.81 C547.03 754.50 546.87 754.94 545.05 756.92 C543.33 758.78 542.40 759.08 541.11 758.17 Z M556.42 758.37 C555.65 758.23 554.95 758.06 554.88 757.98 C554.81 757.90 554.36 757.23 553.88 756.50 C553.40 755.77 552.74 754.80 552.42 754.35 C551.97 753.73 551.83 752.88 551.83 750.83 C551.83 748.45 551.94 747.95 552.73 746.77 C553.22 746.02 553.73 744.84 553.85 744.13 C554.13 742.61 554.51 741.79 555.47 740.70 C557.56 738.31 559.98 736.38 561.60 735.80 C563.42 735.15 566.58 735.23 568.21 735.97 C571.26 737.36 571.54 740.33 568.61 740.33 C568.18 740.33 567.25 739.81 566.53 739.17 C564.97 737.78 564.30 737.54 562.83 737.81 C561.22 738.11 558.56 741.27 557.88 743.68 C557.60 744.68 557.06 746.32 556.69 747.33 C555.60 750.32 555.75 751.59 557.49 753.96 C559.03 756.04 559.44 756.27 562.00 756.45 C563.57 756.57 563.79 756.99 562.81 757.99 C562.26 758.55 558.67 758.76 556.42 758.37 Z M578.07 758.34 C576.67 758.01 575.95 757.35 574.28 754.85 C573.06 753.03 572.95 752.67 573.07 751.16 C573.15 750.24 573.47 748.96 573.79 748.33 C574.11 747.69 574.51 746.52 574.69 745.72 C574.87 744.93 575.58 743.42 576.28 742.38 C576.97 741.33 577.64 740.23 577.75 739.92 C577.87 739.61 578.61 738.96 579.40 738.47 C580.19 737.99 581.21 737.25 581.67 736.83 C582.77 735.83 583.82 735.54 584.68 736.00 C585.51 736.45 585.16 737.05 583.69 737.66 C582.57 738.12 579.06 742.62 578.80 743.93 C578.67 744.57 578.84 745.13 579.36 745.80 C580.07 746.70 580.22 746.74 582.06 746.57 C583.54 746.44 584.00 746.50 584.00 746.84 C584.00 747.47 581.81 748.11 580.44 747.89 C579.21 747.69 577.68 748.12 577.26 748.77 C576.69 749.66 577.05 751.32 578.24 753.32 C579.79 755.94 580.49 756.41 582.82 756.38 C585.00 756.35 585.43 756.83 584.20 757.89 C583.45 758.53 582.94 758.66 581.23 758.63 C580.10 758.61 578.67 758.48 578.07 758.34 Z M611.30 758.24 C610.64 758.02 609.63 757.46 609.04 757.00 C606.12 754.70 606.22 754.83 606.46 753.87 C606.59 753.38 607.19 752.42 607.81 751.75 C609.12 750.31 609.65 750.51 610.29 752.65 C611.06 755.21 614.68 756.90 618.54 756.48 C620.44 756.28 620.75 756.14 621.39 755.21 C621.78 754.64 622.55 753.77 623.12 753.28 C624.04 752.49 624.15 752.18 624.27 750.08 L624.40 747.75 L622.54 745.88 C621.51 744.86 620.67 743.87 620.67 743.70 C620.67 743.53 619.93 743.14 619.03 742.84 C618.06 742.52 617.16 741.96 616.84 741.47 C616.54 741.01 615.79 740.39 615.16 740.09 C614.41 739.74 613.89 739.19 613.67 738.50 C613.47 737.92 612.87 737.02 612.33 736.49 C611.49 735.69 611.33 735.29 611.33 733.90 C611.33 732.43 611.51 732.04 612.92 730.29 C614.03 728.91 614.85 728.23 615.67 728.00 C618.08 727.32 618.24 727.75 616.50 730.19 C614.75 732.65 614.96 734.23 617.22 735.55 C618.02 736.02 618.84 736.70 619.03 737.06 C619.23 737.43 619.94 737.95 620.61 738.23 C621.28 738.51 622.38 739.21 623.05 739.79 C623.72 740.36 624.67 741.11 625.15 741.45 C625.64 741.78 626.18 742.38 626.35 742.78 C626.52 743.18 627.00 743.92 627.41 744.44 C628.07 745.26 628.17 745.77 628.16 748.29 L628.15 751.20 L626.58 753.40 C625.27 755.24 624.75 755.69 623.44 756.14 C622.57 756.43 621.43 757.08 620.91 757.59 C620.00 758.46 619.79 758.50 616.23 758.57 C613.99 758.61 612.02 758.48 611.30 758.24 Z M638.83 758.42 C637.85 758.28 635.88 757.01 635.10 756.01 C634.49 755.25 633.33 751.51 633.33 750.34 C633.33 749.77 633.55 748.80 633.81 748.17 C634.07 747.54 634.39 746.36 634.51 745.55 C634.63 744.74 634.98 743.70 635.28 743.25 C635.59 742.79 636.24 741.82 636.73 741.09 C637.74 739.57 639.18 738.33 639.92 738.33 C640.20 738.33 640.95 737.77 641.60 737.08 C642.77 735.84 642.79 735.83 645.86 735.72 C649.41 735.59 650.02 735.92 650.66 738.32 C651.09 739.92 650.78 741.34 649.52 743.49 C648.85 744.65 648.23 745.16 646.57 745.94 C645.41 746.49 644.27 747.17 644.03 747.47 C643.57 748.02 642.76 748.14 641.86 747.80 C640.99 747.46 641.26 747.00 642.67 746.37 C643.41 746.04 644.81 744.88 645.79 743.80 C648.76 740.51 648.97 739.62 647.16 738.03 C646.51 737.47 645.92 737.00 645.85 737.00 C645.78 737.00 644.90 737.32 643.89 737.70 C642.53 738.22 641.95 738.65 641.67 739.34 C641.45 739.85 640.90 740.62 640.44 741.05 C639.98 741.48 639.39 742.24 639.13 742.73 C638.60 743.76 638.52 745.92 638.99 746.66 C639.22 747.03 639.05 747.40 638.32 748.06 C637.16 749.12 637.12 749.59 637.98 751.83 C638.34 752.75 638.71 753.88 638.80 754.34 C639.05 755.56 640.60 756.31 643.16 756.46 C645.59 756.61 645.85 756.72 645.55 757.49 C645.15 758.53 642.30 758.92 638.83 758.42 Z M682.93 757.99 C682.26 757.63 681.30 756.81 680.81 756.16 C679.94 755.03 679.93 754.96 680.51 754.33 C681.35 753.40 682.13 753.50 683.22 754.70 C685.65 757.36 689.64 757.33 691.01 754.64 C691.72 753.26 691.90 751.00 691.30 751.00 C690.63 751.00 684.76 745.17 684.31 744.06 C684.14 743.64 684.00 742.41 684.00 741.34 C684.00 739.56 684.11 739.27 685.17 738.14 C685.81 737.46 686.33 736.80 686.33 736.67 C686.33 736.28 687.79 735.80 688.58 735.93 C689.68 736.10 689.51 737.05 688.17 738.24 C686.85 739.41 686.78 739.77 687.53 741.65 C687.91 742.59 688.49 743.22 689.53 743.83 C690.34 744.31 691.00 744.81 691.00 744.95 C691.00 745.09 691.66 745.67 692.46 746.23 C693.45 746.93 694.21 747.86 694.85 749.16 L695.78 751.07 L694.73 753.19 C693.97 754.72 693.31 755.55 692.36 756.15 C691.64 756.61 690.91 757.23 690.74 757.53 C690.07 758.71 684.89 759.02 682.93 757.99 Z M704.83 758.20 C703.39 757.55 702.55 756.46 701.55 753.91 C700.54 751.33 700.47 750.23 701.18 747.67 C701.46 746.66 701.82 745.15 701.99 744.31 C702.62 741.17 706.90 736.02 708.90 736.01 C710.55 736.00 710.57 736.62 708.96 738.16 C705.07 741.91 704.13 743.91 703.78 749.18 C703.60 751.78 703.67 752.41 704.26 753.74 C705.04 755.51 706.11 756.33 707.90 756.54 C710.02 756.79 710.44 756.44 713.85 751.49 C715.06 749.72 715.44 748.01 715.88 742.33 C716.06 739.92 716.04 739.79 715.02 738.39 C713.68 736.57 713.78 735.87 715.38 735.73 C716.44 735.64 716.73 735.81 717.95 737.19 C718.70 738.04 719.41 739.24 719.53 739.85 C719.64 740.46 719.58 742.78 719.40 745.01 C719.08 748.86 719.01 749.15 717.88 750.78 C715.60 754.09 711.90 757.55 709.78 758.35 C708.61 758.80 706.01 758.72 704.83 758.20 Z M743.96 757.96 C743.34 757.34 743.28 757.03 743.49 755.38 C743.62 754.34 743.84 752.51 743.99 751.31 C744.13 750.10 744.47 748.75 744.75 748.31 C745.55 747.04 746.26 744.38 746.49 741.82 C746.69 739.53 746.67 739.46 745.68 738.51 L744.66 737.54 L743.34 738.82 C742.22 739.92 741.80 740.12 740.43 740.16 C739.55 740.19 738.10 740.34 737.20 740.49 L735.56 740.76 L735.77 739.47 C736.06 737.71 736.97 736.59 738.59 736.02 C739.88 735.56 740.08 735.59 742.23 736.44 L744.50 737.34 L745.41 736.66 C746.55 735.82 749.18 735.29 750.24 735.69 C751.33 736.11 751.68 737.25 751.15 738.67 C750.92 739.31 750.63 740.86 750.51 742.12 C750.40 743.38 750.03 744.96 749.70 745.62 C749.37 746.29 748.78 747.88 748.40 749.17 C747.51 752.16 747.75 753.68 749.18 754.17 C750.39 754.58 751.00 754.96 751.00 755.31 C751.00 755.45 750.20 756.17 749.22 756.90 C746.95 758.60 744.99 758.99 743.96 757.96 Z M759.92 758.35 C758.12 758.00 757.47 757.25 756.66 754.55 C756.12 752.79 755.98 751.69 756.12 750.34 C756.52 746.49 756.98 744.56 757.81 743.31 C758.28 742.60 758.67 741.82 758.67 741.59 C758.67 740.65 760.06 738.98 761.40 738.31 C762.19 737.92 763.18 737.16 763.61 736.63 C764.37 735.68 764.43 735.67 767.78 735.67 C771.52 735.67 772.28 735.95 773.17 737.67 C774.11 739.50 773.85 740.55 771.76 743.29 C770.41 745.05 769.96 745.41 768.34 745.96 C767.69 746.18 766.61 746.74 765.92 747.22 C764.77 748.02 764.49 748.07 762.40 747.86 C760.40 747.67 760.06 747.72 759.54 748.29 C759.21 748.65 758.87 749.52 758.78 750.22 C758.64 751.30 758.82 751.82 759.97 753.59 C761.47 755.90 762.22 756.33 764.70 756.33 C766.68 756.33 767.24 757.06 766.02 758.05 C765.21 758.71 762.45 758.84 759.92 758.35 Z M777.16 757.86 C776.33 757.02 776.29 756.84 776.50 754.90 C776.62 753.76 776.85 752.31 777.00 751.67 C777.16 751.02 777.38 749.60 777.50 748.50 C777.62 747.39 778.17 745.46 778.75 744.18 C779.59 742.28 779.84 741.19 780.07 738.18 C780.39 734.06 780.78 732.27 781.48 731.68 C782.08 731.19 782.45 729.56 782.17 728.68 C782.05 728.31 781.52 727.75 780.98 727.43 C780.10 726.92 779.60 725.67 780.26 725.67 C780.40 725.67 781.34 725.14 782.33 724.50 C783.33 723.86 784.48 723.33 784.88 723.33 C785.81 723.33 787.00 724.82 786.99 725.96 C786.98 727.80 786.07 731.91 785.48 732.81 C785.08 733.43 784.72 735.00 784.45 737.29 C784.17 739.64 783.69 741.71 783.02 743.44 C782.40 745.01 782.00 746.66 782.00 747.60 C781.99 748.46 781.77 749.90 781.50 750.80 C780.67 753.54 780.78 753.93 782.50 754.37 C783.32 754.58 784.00 754.92 784.00 755.14 C784.00 755.35 783.34 756.18 782.53 756.97 C781.35 758.12 780.77 758.44 779.56 758.58 C778.25 758.73 777.93 758.63 777.16 757.86 Z M790.70 758.08 C789.70 757.26 789.32 755.68 789.82 754.47 C790.05 753.94 790.34 752.15 790.47 750.51 C790.62 748.68 791.10 746.36 791.70 744.51 C792.25 742.85 792.90 739.98 793.16 738.12 C793.48 735.80 793.95 734.03 794.67 732.46 C795.81 729.97 795.87 728.15 794.86 727.03 C794.08 726.17 794.21 725.60 795.46 724.23 C796.41 723.20 796.81 723.00 797.95 723.00 C799.91 723.00 800.48 723.95 800.17 726.74 C799.93 728.97 799.38 731.08 798.54 733.04 C798.26 733.71 797.85 735.66 797.64 737.37 C797.40 739.28 796.88 741.41 796.29 742.84 C795.65 744.40 795.18 746.42 794.88 748.85 C794.63 750.87 794.17 753.02 793.85 753.63 C793.33 754.64 793.32 754.80 793.79 755.27 C794.22 755.70 794.51 755.72 795.61 755.39 C796.32 755.18 797.16 755.00 797.46 755.00 C798.30 755.00 798.10 755.63 797.18 755.86 C796.73 755.97 796.27 756.35 796.16 756.69 C795.59 758.48 792.23 759.34 790.70 758.08 Z M806.80 758.31 C805.38 757.90 804.06 756.50 803.09 754.41 C802.42 752.96 802.30 752.27 802.42 750.41 C802.58 747.66 803.72 743.53 804.57 742.55 C804.92 742.16 805.60 741.21 806.08 740.46 C807.08 738.88 810.62 736.06 812.14 735.63 C813.53 735.23 816.35 735.26 817.56 735.68 C818.67 736.07 820.01 738.11 819.98 739.38 C819.94 741.47 816.85 745.11 814.83 745.44 C814.17 745.54 813.11 746.09 812.47 746.65 C811.84 747.20 810.64 747.83 809.80 748.04 C807.72 748.57 807.19 749.45 807.49 751.88 C807.81 754.40 808.22 755.20 809.51 755.82 C811.33 756.68 812.47 756.49 813.48 755.17 C814.15 754.29 814.62 754.00 815.37 754.00 C816.90 754.00 816.58 755.30 814.83 756.14 C814.10 756.50 813.44 756.93 813.38 757.10 C812.93 758.23 811.94 758.67 809.92 758.64 C808.77 758.62 807.37 758.47 806.80 758.31 Z M491.68 757.52 C491.30 756.55 491.59 749.90 492.06 748.50 C493.30 744.82 494.33 740.24 494.33 738.42 C494.33 736.77 494.56 735.86 495.40 734.09 C496.00 732.81 496.52 731.10 496.60 730.12 C496.73 728.56 496.65 728.31 495.70 727.32 C495.13 726.72 494.67 726.19 494.67 726.13 C494.67 725.87 496.60 724.24 497.44 723.79 C497.95 723.52 498.85 723.34 499.43 723.40 C501.06 723.56 501.41 724.55 501.20 728.40 C501.05 731.19 500.88 731.92 499.98 733.66 C499.27 735.02 498.79 736.62 498.49 738.59 C497.96 742.06 497.47 744.09 496.87 745.29 C496.17 746.68 495.54 753.32 496.07 753.84 C496.19 753.96 496.85 754.26 497.55 754.50 C498.24 754.73 498.86 755.08 498.92 755.26 C498.98 755.44 498.29 756.20 497.38 756.96 C495.89 758.21 495.58 758.33 493.86 758.33 C492.18 758.33 491.95 758.25 491.68 757.52 Z M655.00 757.83 C654.66 757.42 654.69 756.98 655.15 755.51 C655.46 754.51 655.64 753.56 655.55 753.41 C655.27 752.96 655.92 750.52 656.87 748.46 C657.49 747.10 657.79 745.78 657.91 743.86 C658.04 741.85 658.24 740.99 658.72 740.47 C659.29 739.84 659.30 739.72 658.83 739.33 C658.45 739.02 658.11 738.99 657.55 739.25 C656.60 739.68 655.67 739.22 655.67 738.30 C655.67 737.25 657.06 736.13 658.94 735.68 C660.47 735.31 660.78 735.33 661.55 735.84 C662.37 736.37 662.41 736.51 662.21 738.38 C662.10 739.46 661.91 740.76 661.78 741.26 C661.58 742.06 661.62 742.12 662.09 741.72 C662.89 741.07 664.15 741.36 664.27 742.22 C664.34 742.73 664.08 743.11 663.39 743.52 C662.58 744.00 662.33 744.45 662.03 745.97 C661.83 746.99 661.22 748.49 660.69 749.30 C659.92 750.46 659.66 751.31 659.48 753.30 C659.23 756.04 658.69 757.45 657.69 757.99 C656.76 758.49 655.48 758.41 655.00 757.83 Z M668.78 757.46 C668.27 756.69 668.25 756.30 668.60 753.92 C668.81 752.46 669.37 750.42 669.84 749.40 C670.30 748.38 670.83 746.55 671.00 745.35 C671.17 744.14 671.54 742.50 671.82 741.70 C672.47 739.86 672.47 739.80 671.67 739.00 C670.63 737.97 669.00 738.12 667.91 739.36 C667.05 740.34 666.02 740.56 665.77 739.81 C665.71 739.62 665.92 739.22 666.24 738.93 C666.57 738.63 667.46 737.80 668.22 737.08 C669.88 735.49 672.20 734.99 674.13 735.80 C675.59 736.41 676.29 738.26 675.73 740.04 C675.53 740.66 675.27 742.07 675.14 743.17 C675.01 744.27 674.40 746.52 673.79 748.17 C672.31 752.12 672.28 753.99 673.67 755.22 C674.84 756.26 674.91 756.76 674.00 757.67 C673.48 758.18 672.89 758.33 671.34 758.33 C669.56 758.33 669.29 758.24 668.78 757.46 Z M724.73 757.93 C724.18 757.38 724.23 756.84 724.96 755.40 C725.35 754.64 725.64 753.16 725.75 751.50 C725.87 749.51 726.13 748.40 726.78 747.13 C727.43 745.87 727.71 744.69 727.87 742.59 L728.09 739.75 L727.05 738.98 C725.93 738.16 725.68 737.02 726.46 736.37 C727.17 735.78 731.21 735.49 731.81 735.98 C732.08 736.20 732.40 737.05 732.52 737.85 C732.70 739.07 732.59 739.56 731.87 740.80 C730.83 742.58 730.77 743.48 731.67 744.24 C732.81 745.22 732.36 748.07 730.86 749.31 C730.22 749.84 729.80 751.45 729.50 754.46 C729.22 757.30 728.39 758.33 726.42 758.33 C725.71 758.33 724.95 758.15 724.73 757.93 Z M280.83 755.41 C281.02 755.12 281.84 754.10 282.67 753.13 C283.49 752.16 284.49 750.94 284.89 750.41 C285.80 749.21 287.00 744.23 287.00 741.63 C287.00 739.96 286.87 739.50 286.18 738.82 C285.73 738.37 285.14 738.00 284.87 738.00 C284.31 738.00 280.66 741.09 280.20 741.94 C280.04 742.25 279.50 742.89 278.99 743.36 C278.39 743.93 278.00 744.73 277.84 745.70 C277.71 746.50 277.21 747.75 276.73 748.46 C276.04 749.47 275.82 750.26 275.72 752.06 C275.60 754.10 275.68 754.47 276.34 755.17 C276.75 755.61 277.40 756.02 277.79 756.09 C278.96 756.30 280.48 755.96 280.83 755.41 Z M352.87 754.33 C353.76 753.37 354.38 753.00 355.06 753.00 C356.03 753.00 356.12 752.89 356.48 751.26 C356.59 750.76 357.10 749.86 357.63 749.26 C358.56 748.19 359.33 745.68 359.33 743.70 C359.33 743.16 359.69 742.38 360.17 741.86 C362.01 739.88 360.62 738.00 357.31 738.00 C355.42 738.00 355.31 738.05 353.21 739.92 C351.59 741.35 350.68 742.51 349.64 744.50 C348.31 747.02 348.23 747.36 348.08 750.56 C347.93 753.86 347.95 753.98 348.78 754.81 C350.08 756.11 351.37 755.96 352.87 754.33 Z M253.11 754.61 C254.58 753.83 256.97 751.57 257.29 750.66 C257.47 750.14 257.89 749.44 258.22 749.10 C259.42 747.89 259.94 746.76 260.18 744.81 C260.36 743.33 260.66 742.56 261.38 741.74 C262.50 740.45 262.58 739.58 261.67 738.67 C261.20 738.20 260.56 738.00 259.48 738.00 C257.57 738.00 256.28 738.66 255.11 740.25 C254.60 740.94 253.70 742.06 253.09 742.75 C252.49 743.44 252.00 744.23 252.00 744.51 C252.00 744.79 251.55 745.91 251.00 747.00 C250.17 748.64 250.00 749.38 250.00 751.32 C250.00 753.22 250.13 753.79 250.67 754.33 C251.43 755.09 252.06 755.17 253.11 754.61 Z M513.05 746.11 C515.13 745.29 519.00 741.12 519.00 739.69 C519.00 738.27 517.56 737.22 515.93 737.43 C513.94 737.70 512.25 738.70 511.85 739.86 C511.66 740.42 511.00 741.32 510.38 741.87 C509.51 742.64 509.23 743.19 509.10 744.38 C508.95 745.71 509.02 745.98 509.71 746.47 C510.55 747.06 510.66 747.05 513.05 746.11 Z M765.97 745.35 C766.26 744.92 767.21 743.86 768.08 742.99 C769.43 741.64 769.67 741.20 769.67 740.10 C769.67 738.92 769.01 737.48 768.21 736.94 C767.69 736.59 763.52 738.85 763.06 739.72 C762.84 740.15 762.22 741.10 761.68 741.83 C760.39 743.61 760.18 744.55 760.85 745.57 C761.36 746.35 761.55 746.40 763.42 746.26 C765.07 746.14 765.55 745.97 765.97 745.35 Z M811.70 745.58 C813.99 743.03 815.71 740.77 815.89 740.08 C816.12 739.13 815.46 737.75 814.64 737.49 C813.74 737.21 811.88 738.12 810.98 739.30 C810.53 739.88 809.60 741.03 808.92 741.86 C807.61 743.44 807.26 745.13 808.07 745.93 C808.76 746.63 810.95 746.42 811.70 745.58 Z M306.42 744.13 C309.97 740.93 310.23 740.38 309.14 738.28 C308.68 737.39 308.48 737.29 307.61 737.46 C306.24 737.74 304.76 738.85 304.12 740.10 C303.82 740.67 303.20 741.44 302.75 741.79 C302.07 742.33 301.00 744.17 301.00 744.80 C301.00 745.33 302.22 746.00 303.19 746.00 C304.12 746.00 304.74 745.64 306.42 744.13 Z M585.18 744.92 C585.30 744.50 585.99 743.56 586.70 742.82 C587.77 741.71 588.00 741.24 587.99 740.15 C587.98 739.43 587.76 738.46 587.50 738.00 C586.77 736.73 586.89 736.04 587.87 735.79 C590.01 735.26 592.00 737.41 592.00 740.27 C592.00 741.42 591.77 741.78 589.86 743.61 C587.94 745.46 587.58 745.67 586.34 745.67 C585.06 745.67 584.97 745.61 585.18 744.92 Z M450.73 740.11 C450.49 740.01 449.92 739.09 449.47 738.06 C448.67 736.27 448.66 736.16 449.23 735.73 C449.89 735.24 452.90 735.41 454.01 736.00 C454.84 736.45 455.15 738.10 454.60 739.24 C454.23 740.03 453.94 740.18 452.66 740.23 C451.84 740.27 450.97 740.21 450.73 740.11 Z M374.52 732.47 C374.08 732.03 374.01 731.61 374.20 730.54 C374.33 729.78 374.45 728.48 374.47 727.63 C374.52 725.51 375.07 724.94 376.97 725.07 C378.22 725.15 378.57 725.32 378.89 726.00 C379.53 727.36 378.94 729.47 377.42 731.26 C375.92 733.03 375.33 733.28 374.52 732.47 Z M627.70 729.50 C625.78 727.71 624.67 727.35 620.92 727.34 C618.81 727.33 618.33 727.24 618.33 726.82 C618.33 726.53 618.90 726.06 619.58 725.77 C621.30 725.05 627.08 725.32 628.90 726.21 C630.09 726.80 630.17 726.93 630.27 728.53 C630.34 729.73 630.22 730.35 629.86 730.64 C629.45 730.99 629.09 730.80 627.70 729.50 Z M749.45 729.61 C748.69 729.24 748.00 728.01 748.00 727.01 C748.00 726.21 749.95 725.00 751.24 725.00 C752.52 725.00 753.33 725.92 753.33 727.36 C753.32 728.69 753.10 729.09 752.11 729.62 C751.23 730.08 750.41 730.07 749.45 729.61 Z M544.83 646.84 C541.99 646.44 541.19 646.13 540.22 645.06 C539.88 644.69 538.89 644.21 538.02 644.00 C536.95 643.75 536.29 643.37 536.02 642.87 C535.80 642.45 535.19 641.86 534.68 641.56 C534.16 641.25 533.50 640.41 533.20 639.65 C532.90 638.90 532.26 637.95 531.78 637.53 C530.95 636.83 530.87 636.50 530.58 632.70 C530.40 630.46 530.36 627.36 530.49 625.81 C530.70 623.27 530.84 622.86 531.84 621.65 C532.46 620.92 533.06 620.06 533.17 619.74 C533.51 618.84 537.42 615.69 540.10 614.16 C541.27 613.50 544.16 613.12 544.46 613.60 C544.87 614.26 544.23 615.04 542.60 615.87 C541.58 616.39 540.73 617.11 540.39 617.76 C540.08 618.34 539.42 619.22 538.91 619.71 C537.77 620.83 537.33 622.95 537.35 627.30 C537.37 632.43 537.80 635.17 538.79 636.61 C539.27 637.29 539.90 638.57 540.19 639.43 C540.84 641.33 543.47 643.74 545.50 644.30 C547.70 644.90 553.31 644.77 554.55 644.08 C556.67 642.91 558.33 641.65 559.05 640.67 C560.08 639.27 561.00 639.33 561.00 640.79 C561.00 642.33 559.19 644.61 557.05 645.78 C555.77 646.47 554.73 646.74 552.92 646.86 C551.59 646.95 549.82 647.06 549.00 647.12 C548.18 647.17 546.30 647.05 544.83 646.84 Z M295.17 646.45 C294.25 646.17 293.20 645.66 292.83 645.32 C292.47 644.99 291.51 644.56 290.71 644.38 C289.53 644.11 288.76 643.56 286.68 641.44 C283.88 638.60 283.33 637.81 283.33 636.55 C283.33 636.09 282.96 635.27 282.50 634.72 C281.41 633.44 280.67 631.29 280.67 629.47 C280.67 627.59 281.30 624.63 281.83 624.00 C282.52 623.18 283.33 621.41 283.33 620.73 C283.33 620.08 287.25 615.67 287.82 615.67 C287.99 615.67 288.53 615.29 289.01 614.82 C289.58 614.28 290.82 613.74 292.53 613.30 C297.38 612.06 297.83 611.94 298.41 611.63 C299.30 611.17 300.78 611.27 303.42 611.97 C304.75 612.32 306.51 612.70 307.33 612.82 C308.16 612.95 309.54 613.27 310.41 613.55 C311.88 614.01 312.06 614.21 313.02 616.20 C315.36 621.12 313.74 621.70 309.52 617.45 C308.66 616.58 307.62 615.92 306.74 615.69 C305.96 615.48 304.84 614.89 304.25 614.38 C303.23 613.51 303.04 613.47 300.81 613.64 C298.89 613.80 298.26 614.00 297.37 614.75 C296.77 615.25 296.08 615.67 295.84 615.67 C294.97 615.67 291.57 618.88 290.13 621.07 L288.67 623.30 L288.67 627.53 C288.67 631.62 288.70 631.81 289.68 633.52 C290.23 634.49 290.91 636.04 291.19 636.96 C291.46 637.89 291.95 638.83 292.28 639.07 C292.61 639.31 293.22 639.97 293.64 640.54 C294.08 641.15 295.46 642.12 296.92 642.87 C299.29 644.07 299.62 644.15 302.49 644.16 C305.35 644.17 305.64 644.10 307.00 643.17 C307.79 642.62 309.13 641.79 309.96 641.33 C311.24 640.63 311.52 640.29 311.75 639.19 C312.06 637.63 312.53 637.00 313.36 637.00 C314.21 637.00 314.77 638.19 314.52 639.50 C314.34 640.49 313.94 641.13 311.72 644.01 C311.36 644.47 310.13 645.33 308.99 645.93 L306.91 647.00 L301.87 646.98 C298.38 646.96 296.32 646.80 295.17 646.45 Z M344.60 646.69 C343.70 646.57 342.70 646.17 342.26 645.76 C341.84 645.37 340.74 644.77 339.81 644.41 C338.65 643.98 337.38 643.05 335.77 641.47 C333.36 639.12 332.67 638.15 332.67 637.15 C332.67 636.83 332.14 636.00 331.50 635.29 C330.40 634.07 330.33 633.85 330.26 631.42 C330.11 626.14 330.34 624.57 331.49 622.87 C331.94 622.22 332.46 621.10 332.65 620.39 C333.00 619.11 334.30 617.71 337.54 615.14 C339.25 613.78 339.83 613.50 342.00 613.00 C343.01 612.77 344.42 612.28 345.14 611.92 C347.20 610.88 351.63 611.06 355.50 612.33 C357.15 612.87 358.89 613.39 359.36 613.48 C359.83 613.57 360.65 614.07 361.19 614.58 C361.72 615.08 362.47 615.73 362.86 616.00 C364.15 616.93 366.67 620.02 366.67 620.68 C366.67 621.05 367.05 621.93 367.52 622.63 C369.35 625.40 369.38 631.72 367.58 634.53 C367.11 635.25 366.63 636.43 366.51 637.15 C366.17 639.11 361.92 643.40 359.38 644.35 C358.36 644.73 356.93 645.48 356.20 646.02 C354.88 646.99 354.84 647.00 350.52 646.96 C348.12 646.93 345.46 646.81 344.60 646.69 Z M400.03 646.66 C398.86 646.49 397.45 646.21 396.90 646.01 C395.47 645.52 392.94 645.60 392.19 646.18 C391.47 646.72 389.10 646.83 388.35 646.35 C387.63 645.90 388.65 644.88 390.31 644.38 C391.30 644.08 391.69 643.75 391.97 642.95 C392.21 642.26 392.33 637.60 392.33 629.44 L392.33 616.99 L391.46 615.67 C390.43 614.11 390.56 613.50 392.01 613.21 C393.37 612.94 398.44 612.93 399.14 613.20 C399.86 613.48 399.81 614.92 399.03 616.36 C398.46 617.43 398.37 618.65 398.15 628.76 L397.91 639.98 L399.31 641.84 C400.08 642.86 401.09 643.84 401.55 644.02 C402.69 644.45 408.72 644.41 410.53 643.96 C411.71 643.66 412.24 643.27 413.08 642.11 C414.93 639.53 416.37 640.99 415.35 644.41 C414.73 646.49 413.73 646.80 407.50 646.88 C404.57 646.92 401.21 646.82 400.03 646.66 Z M447.17 646.67 C446.25 646.51 443.59 646.47 441.26 646.57 C438.09 646.72 436.89 646.66 436.51 646.34 C435.69 645.66 435.92 645.00 437.13 644.49 C439.45 643.52 439.33 644.32 439.33 630.08 L439.33 617.20 L438.54 616.35 C437.57 615.32 437.24 614.33 437.65 613.68 C437.90 613.29 438.74 613.21 441.88 613.29 C444.04 613.34 445.92 613.45 446.07 613.54 C446.52 613.82 446.36 615.32 445.78 616.20 C445.28 616.96 445.23 618.34 445.26 628.55 L445.30 640.05 L446.37 641.72 C446.95 642.63 447.75 643.58 448.13 643.82 C448.52 644.06 450.19 644.36 451.85 644.48 C454.83 644.70 454.90 644.69 457.02 643.57 C458.48 642.80 459.47 642.00 460.11 641.05 C461.19 639.46 461.89 639.29 462.21 640.55 C462.37 641.21 462.15 641.96 461.34 643.47 C459.48 646.92 459.75 646.79 453.92 646.88 C451.12 646.92 448.08 646.82 447.17 646.67 Z M492.50 646.68 C489.02 646.56 486.13 646.43 486.08 646.40 C486.04 646.36 486.00 645.99 486.00 645.56 C486.00 645.01 486.38 644.58 487.33 644.04 C488.07 643.63 488.67 643.11 488.67 642.90 C488.68 642.68 488.68 636.81 488.68 629.86 L488.67 617.21 L487.81 615.96 C486.87 614.61 486.93 613.35 487.94 613.31 C488.25 613.30 491.43 613.30 495.00 613.31 C498.57 613.32 502.78 613.20 504.33 613.05 C505.89 612.89 507.41 612.89 507.71 613.04 C508.89 613.64 509.49 617.50 508.46 617.89 C508.11 618.03 507.55 617.68 506.79 616.86 L505.66 615.62 L500.34 615.73 C493.37 615.87 493.54 615.73 493.63 621.15 C493.67 623.28 493.78 625.23 493.88 625.49 C494.22 626.39 496.39 626.79 500.58 626.74 C504.58 626.69 504.67 626.70 505.20 627.51 C505.86 628.51 505.58 629.51 504.75 629.17 C504.43 629.04 502.92 628.71 501.39 628.44 C498.91 628.01 498.39 628.01 496.57 628.47 C494.36 629.03 493.63 629.54 493.64 630.53 C493.67 640.59 493.72 640.92 495.41 642.39 C497.38 644.11 498.01 644.30 501.87 644.36 C505.08 644.41 505.69 644.33 507.16 643.62 C508.13 643.16 509.10 642.38 509.49 641.76 C510.18 640.67 511.16 640.33 511.42 641.08 C511.73 641.97 510.10 645.28 508.86 646.31 C508.18 646.87 502.10 647.01 492.50 646.68 Z M675.76 646.65 C674.81 646.52 673.53 646.09 672.93 645.71 C672.33 645.32 671.18 644.71 670.38 644.33 C668.56 643.49 666.12 641.12 665.63 639.71 C665.43 639.13 664.85 638.23 664.35 637.73 C663.56 636.94 663.38 636.38 663.02 633.50 C662.59 630.11 662.78 623.95 663.36 622.42 C663.68 621.59 665.00 620.04 667.38 617.69 C670.81 614.32 672.51 613.42 676.08 613.09 C677.68 612.94 678.00 612.99 678.00 613.43 C678.00 614.03 676.77 614.94 674.78 615.80 C672.71 616.71 670.31 619.65 669.92 621.77 C669.75 622.70 669.30 624.07 668.93 624.81 C668.35 625.94 668.28 626.53 668.45 628.66 C668.56 630.04 668.94 631.92 669.29 632.83 C669.81 634.21 670.25 636.75 670.32 638.91 C670.33 639.13 670.77 639.54 671.31 639.82 C671.85 640.10 672.38 640.63 672.50 641.00 C672.80 641.95 676.28 644.23 678.15 644.70 C679.95 645.15 686.19 644.94 687.21 644.40 C687.56 644.21 688.79 643.16 689.93 642.07 C691.58 640.49 692.00 639.88 692.00 639.07 C692.00 638.41 692.40 637.59 693.17 636.67 L694.33 635.27 L694.33 631.22 C694.32 626.49 694.05 625.05 692.92 623.71 C692.47 623.17 691.99 622.10 691.87 621.34 C691.69 620.18 691.27 619.59 689.41 617.83 C687.89 616.40 686.71 615.58 685.77 615.32 C683.97 614.81 683.07 613.89 683.66 613.17 C684.26 612.45 685.81 612.54 688.98 613.49 C690.91 614.07 692.11 614.66 693.00 615.46 C693.69 616.09 694.54 616.69 694.89 616.80 C695.24 616.91 695.80 617.49 696.14 618.08 C696.48 618.68 697.12 619.56 697.56 620.03 C698.08 620.59 698.71 622.17 699.35 624.53 C700.40 628.37 700.43 630.03 699.49 632.70 C699.25 633.37 698.95 634.75 698.83 635.77 C698.64 637.23 698.34 637.91 697.38 639.02 C694.33 642.54 692.97 643.68 690.10 645.15 L687.13 646.67 L682.32 646.78 C679.67 646.85 676.72 646.79 675.76 646.65 Z M723.50 646.77 C719.67 646.56 719.13 646.00 720.96 644.09 C722.12 642.88 722.23 641.94 722.53 631.36 C722.64 627.44 722.85 623.90 723.00 623.49 C723.33 622.63 723.08 618.85 722.62 617.67 C722.44 617.21 721.70 616.42 720.96 615.90 C719.97 615.22 719.65 614.78 719.73 614.24 C719.82 613.58 720.06 613.49 722.00 613.39 C723.19 613.34 724.98 613.39 725.98 613.51 C728.02 613.76 727.91 613.66 732.67 619.32 C736.20 623.52 739.43 626.86 741.69 628.65 C743.50 630.08 744.76 631.54 745.73 633.30 C746.13 634.02 746.55 634.33 747.11 634.33 C748.72 634.33 748.82 633.84 748.87 625.21 C748.92 617.65 748.88 617.08 748.22 615.72 C747.53 614.29 747.53 614.26 748.15 613.80 C749.02 613.17 752.95 613.16 753.20 613.79 C753.29 614.04 752.91 615.13 752.35 616.21 L751.32 618.17 L751.00 627.00 C750.83 631.86 750.68 638.05 750.67 640.76 C750.67 646.74 750.44 647.06 748.03 644.42 C747.19 643.50 745.40 641.53 744.05 640.06 C742.70 638.59 741.36 637.03 741.07 636.61 C740.78 636.18 739.37 634.52 737.94 632.91 C736.51 631.30 735.33 629.86 735.33 629.69 C735.33 629.53 734.77 629.07 734.09 628.67 C733.41 628.26 732.65 627.65 732.40 627.30 C732.16 626.94 731.37 626.36 730.65 625.99 C729.93 625.62 729.09 624.91 728.78 624.41 C727.30 622.03 726.43 621.57 725.17 622.52 C724.52 623.01 724.50 623.36 724.60 632.76 C724.66 638.12 724.79 642.77 724.88 643.10 C724.98 643.42 725.64 644.06 726.36 644.52 C727.08 644.97 727.67 645.56 727.67 645.83 C727.67 646.36 726.62 647.04 725.94 646.94 C725.70 646.90 724.60 646.83 723.50 646.77 Z M589.70 646.31 C588.94 646.00 588.93 645.96 589.50 645.34 C589.82 644.98 590.41 644.59 590.79 644.47 C591.18 644.35 591.84 643.94 592.26 643.56 L593.02 642.86 L592.97 630.51 C592.95 623.72 592.85 617.82 592.76 617.41 C592.47 616.11 591.06 615.67 587.27 615.67 C583.74 615.67 583.61 615.71 581.26 617.40 C580.44 618.00 579.92 617.36 579.88 615.70 C579.82 613.46 580.22 613.29 585.71 613.12 C588.35 613.04 591.70 613.10 593.17 613.26 C594.63 613.42 598.06 613.44 600.77 613.32 C608.37 612.95 609.12 613.29 609.46 617.25 C609.60 618.83 609.55 619.67 609.32 619.67 C609.13 619.67 608.87 619.38 608.74 619.04 C608.61 618.70 607.75 617.83 606.83 617.12 C605.19 615.85 605.13 615.83 601.83 615.73 C599.36 615.65 598.34 615.74 597.87 616.09 C597.27 616.54 597.24 617.19 597.28 629.78 C597.30 637.74 597.44 643.25 597.64 643.62 C597.82 643.96 598.65 644.49 599.48 644.81 C601.02 645.40 601.44 646.09 600.47 646.46 C599.63 646.79 590.58 646.66 589.70 646.31 Z M631.75 646.45 C630.91 646.11 631.37 645.10 632.87 644.05 L634.40 642.97 L634.22 629.94 L634.05 616.92 L633.12 615.95 C632.37 615.17 632.26 614.86 632.54 614.40 C632.83 613.94 633.51 613.81 636.04 613.74 C641.02 613.58 641.37 613.84 639.80 616.53 L638.93 618.01 L639.12 630.12 C639.30 641.46 639.42 643.33 639.95 643.33 C640.07 643.34 640.74 643.87 641.45 644.51 C642.50 645.48 642.66 645.78 642.32 646.18 C642.00 646.57 640.94 646.66 637.04 646.64 C634.36 646.63 631.98 646.54 631.75 646.45 Z M354.54 643.91 C356.01 643.05 358.55 640.78 359.89 639.12 L361.28 637.40 L361.52 633.58 C361.65 631.47 361.64 628.14 361.51 626.18 C361.29 623.01 361.18 622.53 360.48 621.92 C360.06 621.55 359.49 620.70 359.22 620.04 C358.72 618.79 356.29 616.51 354.43 615.55 C353.84 615.24 352.79 614.61 352.09 614.13 C351.01 613.40 350.56 613.29 348.92 613.41 C347.58 613.50 346.78 613.75 346.25 614.24 C345.84 614.62 344.50 615.41 343.27 615.98 C341.61 616.76 340.84 617.35 340.29 618.27 C339.88 618.94 339.21 619.82 338.80 620.21 C337.79 621.17 337.53 623.57 337.75 629.93 C337.90 634.55 337.99 635.16 338.64 635.95 C339.03 636.44 339.65 637.46 340.02 638.23 C340.84 639.97 342.96 641.84 345.69 643.25 C347.61 644.24 348.06 644.33 350.81 644.33 C352.60 644.33 354.12 644.16 354.54 643.91 Z M559.43 622.92 C559.25 622.69 558.91 621.78 558.67 620.91 C558.15 618.96 555.79 616.68 553.41 615.81 C551.62 615.15 550.14 613.92 550.48 613.37 C550.83 612.80 553.52 612.97 556.83 613.78 C559.65 614.46 559.87 614.57 560.40 615.67 C561.19 617.28 561.38 622.56 560.67 623.01 C560.00 623.43 559.81 623.41 559.43 622.92 Z M515.03 579.09 C514.77 578.99 513.00 577.35 511.10 575.46 C509.20 573.56 507.24 571.79 506.74 571.53 C505.60 570.94 499.67 564.81 499.67 564.23 C499.67 562.93 501.81 562.53 502.19 563.75 C502.50 564.74 502.93 564.99 504.33 564.99 C505.71 564.99 505.96 564.84 506.96 563.41 C507.38 562.81 508.18 562.09 508.74 561.80 C509.29 561.51 510.08 560.89 510.49 560.41 C511.56 559.17 512.49 559.59 512.23 561.20 C512.08 562.11 512.22 562.69 512.82 563.64 C513.78 565.17 515.51 566.67 516.31 566.67 C516.64 566.67 517.79 567.11 518.87 567.66 C520.80 568.64 522.46 568.94 522.81 568.38 C522.90 568.22 523.53 568.00 524.21 567.89 C524.88 567.78 525.74 567.41 526.13 567.07 C526.52 566.73 527.92 565.82 529.25 565.04 C531.46 563.76 531.67 563.55 531.66 562.57 C531.65 561.98 531.43 561.21 531.16 560.85 C530.13 559.50 530.74 559.56 532.01 560.95 C533.38 562.45 533.46 562.61 533.14 563.44 C532.80 564.34 525.41 570.67 524.70 570.67 C524.33 570.67 523.53 571.10 522.93 571.62 C522.33 572.15 521.19 572.90 520.40 573.30 C519.62 573.70 518.84 574.38 518.67 574.81 C518.51 575.25 518.23 575.69 518.06 575.80 C517.88 575.91 517.64 576.41 517.51 576.91 C517.29 577.79 516.10 579.36 515.69 579.31 C515.59 579.29 515.29 579.20 515.03 579.09 Z M164.33 566.43 C162.23 566.16 161.22 564.44 162.70 563.65 C163.51 563.22 223.54 563.18 382.50 563.53 C467.21 563.71 480.27 563.80 480.94 564.22 C481.85 564.80 481.75 565.35 480.64 565.91 C480.00 566.23 446.73 566.32 323.83 566.33 C238.03 566.34 167.31 566.40 166.67 566.47 C166.03 566.53 164.97 566.52 164.33 566.43 Z M549.58 565.99 C549.26 565.79 549.00 565.36 549.00 565.02 C549.00 563.97 549.87 563.56 551.57 563.79 C552.43 563.91 601.82 563.98 661.32 563.94 C888.29 563.80 869.38 563.76 869.80 564.42 C870.06 564.84 870.06 565.16 869.80 565.58 C869.45 566.13 867.80 566.16 842.46 566.13 C738.99 565.99 552.56 566.00 551.48 566.16 C550.76 566.26 549.90 566.19 549.58 565.99 Z M399.98 498.89 C399.88 498.78 397.17 498.65 393.96 498.60 C388.29 498.50 388.07 498.47 386.80 497.63 C385.56 496.80 383.71 496.29 380.27 495.84 C379.27 495.71 378.27 495.28 377.47 494.64 C376.21 493.64 375.87 493.52 373.52 493.20 C372.68 493.09 371.96 492.72 371.52 492.20 C371.11 491.70 370.08 491.16 368.93 490.83 C367.24 490.35 366.95 490.14 366.19 488.77 C365.59 487.70 365.28 486.55 365.16 484.91 C365.06 483.62 364.90 482.44 364.80 482.27 C364.70 482.11 364.48 477.60 364.33 472.24 C364.07 463.54 364.10 462.46 364.57 462.10 C364.93 461.82 365.28 461.79 365.70 462.02 C366.41 462.40 368.52 466.06 368.85 467.50 C368.98 468.05 369.50 468.95 370.02 469.50 C370.53 470.05 371.20 471.14 371.52 471.93 C371.83 472.71 372.38 473.51 372.74 473.70 C373.10 473.90 373.67 474.69 374.01 475.45 C374.35 476.22 375.03 477.22 375.52 477.68 C376.00 478.13 376.67 479.03 377.00 479.67 C377.82 481.25 382.17 485.91 383.09 486.19 C383.50 486.32 384.51 486.91 385.34 487.52 C386.18 488.12 387.30 488.73 387.84 488.86 C388.39 488.99 389.46 489.53 390.24 490.06 C391.01 490.58 392.40 491.16 393.33 491.33 C394.26 491.51 395.95 492.03 397.09 492.48 C400.51 493.84 402.34 494.09 408.13 493.94 C413.20 493.82 413.59 493.76 415.17 492.91 C416.08 492.41 417.94 491.78 419.30 491.50 C421.02 491.14 421.99 490.75 422.49 490.21 C422.89 489.78 423.81 489.23 424.53 489.00 C425.24 488.77 426.43 488.03 427.17 487.36 C427.90 486.69 429.00 485.77 429.62 485.32 C431.27 484.11 434.01 479.82 434.30 477.97 C434.46 476.98 434.96 475.93 435.69 475.02 L436.83 473.60 L436.83 466.02 L436.83 458.44 L435.78 457.24 C434.96 456.31 434.67 455.60 434.48 454.10 C434.18 451.64 433.91 450.94 432.86 449.89 C432.39 449.42 432.00 448.85 432.00 448.62 C432.00 448.06 425.04 441.33 424.46 441.33 C424.21 441.33 423.44 440.83 422.75 440.21 C422.06 439.60 420.93 438.91 420.24 438.68 C419.54 438.46 418.66 437.84 418.27 437.32 C417.74 436.60 417.18 436.30 416.03 436.13 C414.96 435.97 414.24 435.61 413.59 434.92 C413.02 434.31 412.03 433.77 410.95 433.49 C409.87 433.20 408.90 432.67 408.34 432.06 C407.70 431.36 407.01 431.03 405.84 430.85 C404.69 430.68 403.93 430.32 403.22 429.60 C402.45 428.83 401.77 428.53 400.38 428.34 C399.03 428.16 398.36 427.88 397.82 427.25 C396.86 426.13 395.93 425.67 394.66 425.67 C393.94 425.67 393.30 425.35 392.58 424.63 C392.01 424.06 390.88 423.40 390.07 423.15 C389.26 422.91 388.37 422.39 388.09 421.99 C387.81 421.60 386.90 420.98 386.07 420.62 C385.23 420.26 384.34 419.68 384.10 419.34 C383.85 418.99 382.92 418.30 382.02 417.81 C380.99 417.25 380.23 416.56 379.98 415.95 C379.76 415.41 379.24 414.71 378.83 414.39 C378.42 414.07 377.81 413.27 377.46 412.62 C377.12 411.97 375.86 410.57 374.67 409.53 C373.47 408.48 372.30 407.14 372.05 406.57 C371.80 405.99 371.17 405.02 370.63 404.41 C370.10 403.81 369.67 403.20 369.66 403.07 C369.65 401.79 368.82 398.03 368.13 396.08 C367.34 393.87 367.28 393.32 367.40 389.75 C367.51 386.80 367.73 385.34 368.28 383.83 C368.69 382.73 369.16 380.88 369.32 379.70 C369.54 378.20 369.87 377.32 370.44 376.70 C370.89 376.23 371.44 375.23 371.67 374.50 C371.90 373.77 372.63 372.53 373.30 371.76 C375.37 369.34 376.47 367.95 377.39 366.57 C378.53 364.86 382.04 361.80 383.61 361.14 C384.28 360.86 385.21 360.28 385.67 359.84 C386.26 359.28 387.27 358.91 389.17 358.56 C390.63 358.30 392.73 357.69 393.83 357.21 C395.43 356.53 396.38 356.35 398.51 356.34 C400.18 356.34 402.05 356.08 403.51 355.66 C408.77 354.13 409.47 354.00 412.65 354.00 C415.67 354.00 420.54 354.74 423.67 355.67 C424.31 355.86 426.45 356.17 428.43 356.35 C431.08 356.59 432.45 356.88 433.60 357.46 C434.67 358.00 436.28 358.38 438.66 358.65 C440.58 358.87 442.42 359.20 442.74 359.37 C443.87 359.98 446.32 361.70 446.52 362.04 C446.64 362.23 446.73 368.33 446.73 375.60 C446.72 389.58 446.69 389.80 445.23 389.24 C444.35 388.90 443.02 386.47 442.51 384.25 C442.17 382.80 441.77 381.96 441.18 381.49 C440.72 381.12 440.11 380.13 439.83 379.29 C439.54 378.46 438.79 377.27 438.15 376.65 C437.52 376.04 437.00 375.33 437.00 375.08 C437.00 374.83 436.51 374.18 435.92 373.64 C435.32 373.10 434.68 372.23 434.50 371.71 C433.94 370.14 430.63 366.77 428.92 366.04 C428.07 365.67 427.13 365.00 426.82 364.53 C426.46 363.98 425.85 363.62 425.05 363.49 C423.62 363.26 422.16 362.61 421.00 361.67 C420.36 361.16 419.28 360.91 416.33 360.62 C411.61 360.14 409.12 360.13 403.23 360.56 C398.74 360.89 398.61 360.93 397.57 361.93 C396.95 362.53 395.90 363.10 395.07 363.28 C394.22 363.47 393.04 364.12 392.16 364.88 C389.13 367.51 387.36 369.31 386.85 370.29 C386.57 370.85 385.98 371.66 385.55 372.09 C385.06 372.58 384.55 373.78 384.17 375.35 C383.84 376.72 383.44 378.00 383.28 378.21 C383.12 378.41 382.85 379.68 382.68 381.04 C382.37 383.57 382.61 385.69 383.50 388.03 C383.75 388.69 384.12 390.18 384.34 391.35 C384.63 392.99 384.99 393.77 385.86 394.74 C386.49 395.43 387.00 396.17 387.00 396.37 C387.00 397.01 391.65 401.94 393.75 403.54 C394.85 404.38 396.37 405.33 397.13 405.65 C397.89 405.98 398.72 406.50 398.98 406.81 C399.58 407.54 401.12 408.33 401.92 408.33 C402.26 408.33 403.61 408.86 404.91 409.50 C406.21 410.14 407.55 410.67 407.89 410.67 C409.12 410.67 410.93 411.36 411.79 412.15 C412.56 412.87 414.51 413.66 415.52 413.66 C415.71 413.67 416.51 414.14 417.29 414.71 C418.08 415.29 419.40 415.89 420.22 416.04 C421.07 416.20 422.30 416.78 423.03 417.36 C423.74 417.92 424.89 418.54 425.58 418.72 C426.27 418.91 427.28 419.47 427.83 419.98 C428.38 420.48 429.36 421.09 430.00 421.33 C430.64 421.57 431.62 422.19 432.17 422.71 C432.73 423.23 433.67 423.82 434.26 424.03 C434.86 424.23 435.50 424.69 435.68 425.03 C435.87 425.38 436.65 425.98 437.43 426.37 C439.02 427.17 439.69 427.74 443.67 431.71 C447.03 435.07 448.95 437.37 449.75 438.99 C450.07 439.63 450.69 440.64 451.12 441.23 C451.55 441.81 452.00 443.00 452.12 443.88 C452.27 444.94 452.63 445.78 453.23 446.40 C454.05 447.26 454.16 447.70 454.55 451.75 C455.08 457.30 455.08 461.52 454.54 466.00 C454.21 468.83 453.95 469.76 453.21 470.88 C452.70 471.64 452.08 473.07 451.82 474.05 C451.55 475.10 451.07 476.03 450.66 476.30 C450.28 476.56 449.76 477.27 449.50 477.89 C449.24 478.51 448.54 479.63 447.93 480.38 C445.98 482.83 440.41 488.33 439.89 488.33 C439.61 488.33 439.06 488.78 438.67 489.33 C438.18 490.02 437.48 490.45 436.47 490.71 C435.49 490.95 434.76 491.40 434.32 492.02 C433.91 492.59 433.02 493.16 431.99 493.50 C431.08 493.81 430.18 494.34 429.99 494.68 C429.64 495.34 428.58 495.69 425.00 496.33 C423.74 496.55 422.31 497.07 421.58 497.57 C420.50 498.31 419.93 498.44 417.41 498.50 C415.81 498.54 411.28 498.69 407.33 498.83 C403.39 498.97 400.08 498.99 399.98 498.89 Z M811.67 498.67 C810.11 498.52 807.33 498.38 805.50 498.37 C802.88 498.34 801.92 498.20 801.00 497.69 C798.79 496.47 798.20 496.30 795.08 496.01 C792.11 495.73 790.94 495.31 789.74 494.12 C789.50 493.88 788.79 493.61 788.16 493.51 C787.52 493.41 786.48 493.25 785.85 493.15 C785.16 493.05 784.43 492.63 784.03 492.13 C783.61 491.60 782.72 491.11 781.64 490.83 C779.71 490.32 778.44 489.32 777.84 487.83 C777.55 487.11 777.46 484.11 777.53 477.00 C777.57 471.59 777.49 466.58 777.33 465.87 C776.99 464.28 777.42 463.00 778.29 463.00 C778.75 463.00 779.32 463.70 780.26 465.42 C780.99 466.75 781.69 468.21 781.83 468.67 C781.96 469.12 782.56 470.03 783.16 470.67 C783.76 471.31 784.43 472.38 784.64 473.06 C784.86 473.73 785.27 474.48 785.56 474.72 C785.85 474.96 786.46 475.76 786.91 476.50 C788.03 478.32 795.84 485.92 797.17 486.48 C797.76 486.72 798.54 487.25 798.90 487.64 C799.26 488.03 800.57 488.63 801.80 488.97 C803.03 489.31 804.37 489.90 804.78 490.29 C805.29 490.76 806.30 491.09 807.99 491.33 C809.35 491.53 810.92 491.92 811.48 492.20 C813.76 493.37 815.49 493.66 820.20 493.66 C824.80 493.67 826.25 493.45 828.06 492.47 C828.55 492.21 830.11 491.84 831.53 491.66 C833.01 491.47 834.53 491.06 835.13 490.68 C835.70 490.32 836.87 489.65 837.73 489.18 C839.91 488.01 847.14 480.97 847.77 479.41 C848.04 478.73 848.65 477.81 849.11 477.38 C849.71 476.82 850.00 476.12 850.15 474.88 C850.26 473.94 850.59 471.77 850.90 470.07 C851.40 467.20 851.40 466.80 850.89 464.40 C850.58 462.98 850.33 461.15 850.33 460.32 C850.33 458.29 849.84 456.72 848.87 455.69 C848.42 455.22 847.90 454.22 847.70 453.48 C847.50 452.73 846.98 451.78 846.53 451.36 C846.08 450.94 845.53 450.13 845.30 449.55 C844.78 448.27 841.56 444.67 840.37 444.05 C839.89 443.79 838.98 443.11 838.33 442.51 C837.69 441.92 836.68 441.25 836.08 441.01 C835.49 440.78 835.00 440.45 835.00 440.29 C835.00 439.83 832.92 438.67 832.08 438.67 C831.67 438.67 830.77 438.15 830.08 437.53 C829.31 436.84 828.30 436.30 827.49 436.16 C826.68 436.01 825.71 435.50 825.00 434.83 C824.21 434.08 823.35 433.66 822.33 433.49 C821.32 433.33 820.43 432.88 819.58 432.13 C818.76 431.39 818.00 431.00 817.35 431.00 C815.95 431.00 814.68 430.44 813.94 429.50 C813.59 429.06 812.80 428.60 812.19 428.48 C811.58 428.37 810.54 427.77 809.90 427.16 C809.06 426.37 808.27 425.98 807.15 425.81 C806.14 425.66 805.20 425.24 804.49 424.61 C803.88 424.08 802.69 423.41 801.84 423.12 C800.99 422.83 800.07 422.24 799.79 421.81 C799.51 421.38 798.73 420.85 798.06 420.63 C796.58 420.15 794.98 418.84 790.73 414.64 C784.35 408.33 783.08 406.88 782.71 405.53 C782.52 404.82 781.95 403.81 781.46 403.29 C780.63 402.42 780.50 401.92 779.95 397.26 C779.62 394.46 779.43 391.49 779.52 390.67 C779.61 389.84 779.82 387.24 779.99 384.89 C780.27 381.02 780.38 380.51 781.18 379.45 C781.67 378.81 782.27 377.52 782.52 376.59 C782.77 375.65 783.40 374.44 783.94 373.87 C784.47 373.30 785.08 372.32 785.29 371.69 C785.50 371.05 786.16 370.07 786.76 369.49 C787.35 368.91 788.15 368.08 788.55 367.64 C790.04 365.96 794.11 362.74 796.17 361.63 C796.90 361.23 797.97 360.50 798.55 360.00 C799.31 359.33 800.12 359.02 801.55 358.85 C802.62 358.71 804.22 358.25 805.10 357.81 C806.75 356.98 809.83 356.34 812.17 356.33 C812.90 356.33 813.90 356.12 814.40 355.86 C816.53 354.75 818.95 354.33 823.27 354.33 C826.55 354.33 828.11 354.49 829.71 354.97 C831.84 355.60 834.42 356.01 840.33 356.64 C842.07 356.83 844.40 357.29 845.50 357.68 C846.60 358.06 848.85 358.51 850.50 358.68 C854.47 359.09 854.68 359.15 856.16 360.33 C856.85 360.88 857.71 361.33 858.07 361.33 C858.42 361.33 859.00 361.49 859.34 361.67 C859.95 361.99 859.98 362.58 859.99 374.19 C860.01 386.45 859.90 387.67 858.80 387.67 C857.98 387.67 856.07 385.32 855.70 383.85 C855.52 383.09 854.91 382.05 854.34 381.51 C853.78 380.97 853.16 379.92 852.96 379.18 C852.74 378.34 852.18 377.48 851.47 376.89 C850.84 376.37 850.33 375.79 850.33 375.59 C850.33 375.22 848.39 372.98 845.62 370.17 C842.46 366.96 841.36 366.00 840.85 366.00 C840.57 366.00 839.76 365.48 839.06 364.85 C838.32 364.18 837.19 363.56 836.36 363.38 C835.57 363.20 834.51 362.66 834.00 362.17 C832.95 361.16 831.29 360.69 828.77 360.67 C827.81 360.67 826.16 360.43 825.10 360.15 C821.57 359.21 818.91 359.15 817.04 359.95 C815.89 360.45 814.69 360.67 813.15 360.67 C811.04 360.67 810.87 360.73 809.88 361.81 C809.30 362.43 808.38 363.05 807.83 363.18 C807.28 363.31 806.34 363.79 805.75 364.23 C804.15 365.42 800.00 369.53 800.00 369.93 C800.00 370.12 799.48 370.90 798.83 371.67 C798.15 372.49 797.67 373.43 797.66 373.95 C797.66 375.13 797.09 377.20 796.31 378.86 C795.32 380.94 795.40 386.04 796.46 388.59 C796.89 389.64 797.36 391.22 797.48 392.11 C797.65 393.25 798.03 394.07 798.81 394.94 C799.42 395.62 800.01 396.47 800.12 396.83 C800.40 397.72 805.02 402.44 807.44 404.33 C808.50 405.16 810.00 406.38 810.77 407.04 C811.54 407.70 812.77 408.44 813.50 408.67 C814.23 408.91 815.21 409.38 815.67 409.72 C816.13 410.06 817.48 410.50 818.67 410.70 C820.03 410.93 821.51 411.47 822.67 412.16 C823.68 412.77 825.13 413.44 825.90 413.64 C826.67 413.85 827.76 414.40 828.32 414.87 C828.88 415.34 830.10 415.93 831.04 416.18 C831.97 416.42 833.29 417.01 833.97 417.48 C834.64 417.94 835.95 418.55 836.88 418.83 C837.80 419.10 838.82 419.62 839.15 419.98 C839.48 420.34 840.69 420.95 841.85 421.34 C843.00 421.72 844.15 422.28 844.39 422.57 C844.63 422.87 845.47 423.39 846.25 423.74 C847.03 424.08 848.08 424.75 848.58 425.21 C849.08 425.68 850.01 426.27 850.63 426.53 C852.07 427.13 853.54 428.51 861.14 436.33 C861.59 436.79 862.14 437.62 862.38 438.17 C862.62 438.72 863.31 439.79 863.91 440.55 C864.79 441.64 865.12 442.48 865.49 444.61 C865.75 446.09 866.28 448.32 866.66 449.56 C867.92 453.65 867.94 466.17 866.68 467.83 C866.19 468.48 865.33 471.47 865.33 472.54 C865.33 474.09 864.81 475.25 863.69 476.20 C863.15 476.65 862.62 477.47 862.49 478.03 C862.25 479.13 861.59 479.92 856.86 484.67 C852.68 488.87 850.64 490.58 849.47 490.86 C848.94 490.99 847.96 491.58 847.31 492.16 C846.56 492.83 845.59 493.31 844.73 493.45 C843.87 493.59 842.98 494.03 842.36 494.64 C841.39 495.59 840.97 495.71 837.05 496.19 C836.01 496.32 835.01 496.66 834.66 497.01 C833.55 498.12 832.64 498.38 829.56 498.49 C817.87 498.87 814.16 498.91 811.67 498.67 Z M213.23 498.33 C212.71 498.17 212.11 497.91 211.90 497.74 C210.77 496.88 208.18 496.24 204.89 496.02 C201.50 495.80 201.24 495.73 200.56 494.87 C199.83 493.96 198.11 493.36 196.21 493.34 C195.59 493.34 194.80 492.93 194.00 492.20 C193.18 491.46 192.24 490.99 191.29 490.83 C190.24 490.65 189.52 490.25 188.72 489.40 C187.27 487.86 187.00 487.08 187.00 484.39 C187.00 480.32 186.31 471.86 185.79 469.64 C185.12 466.74 185.26 465.53 186.28 465.39 C187.70 465.19 188.91 465.96 189.50 467.45 C189.80 468.21 190.41 469.21 190.84 469.67 C191.27 470.12 191.91 471.18 192.27 472.00 C192.62 472.82 193.25 473.80 193.67 474.17 C194.08 474.53 194.68 475.43 195.01 476.17 C195.70 477.76 201.05 483.38 202.58 484.15 C203.18 484.44 203.67 484.84 203.67 485.03 C203.67 485.21 204.23 485.60 204.92 485.88 C205.60 486.16 206.85 486.83 207.69 487.36 C208.53 487.89 209.99 488.48 210.93 488.65 C211.88 488.83 213.22 489.35 213.91 489.81 C215.88 491.11 219.01 491.42 228.48 491.27 L236.83 491.14 L239.19 489.90 C240.60 489.16 242.01 488.67 242.71 488.67 C243.55 488.67 244.25 488.35 245.19 487.55 C245.91 486.94 246.95 486.33 247.50 486.19 C248.05 486.06 248.95 485.51 249.50 484.97 C250.05 484.43 252.00 482.61 253.83 480.93 C255.67 479.25 257.38 477.49 257.63 477.02 C257.89 476.55 258.36 475.99 258.67 475.76 C258.98 475.54 259.58 474.58 259.99 473.61 C260.40 472.65 261.16 471.33 261.67 470.68 C262.33 469.83 262.65 468.96 262.80 467.54 C262.95 466.16 263.26 465.29 263.83 464.61 C265.24 462.93 265.38 461.61 265.27 450.99 L265.17 441.04 L264.20 440.03 C263.45 439.25 263.16 438.55 262.95 436.97 C262.73 435.42 262.42 434.64 261.68 433.80 C261.14 433.18 260.53 432.07 260.33 431.34 C260.12 430.55 259.63 429.77 259.14 429.45 C258.68 429.15 258.06 428.44 257.78 427.87 C257.19 426.71 251.20 420.67 250.64 420.67 C250.44 420.67 249.71 420.09 249.01 419.38 C248.11 418.48 247.34 418.03 246.39 417.88 C245.53 417.74 244.81 417.37 244.40 416.84 C243.61 415.84 242.37 415.33 240.69 415.33 C239.88 415.33 239.03 415.04 238.30 414.51 C236.09 412.90 235.94 412.88 226.83 412.85 C217.14 412.83 215.25 413.03 213.94 414.25 C213.26 414.88 212.51 415.13 210.61 415.35 C209.27 415.51 207.99 415.64 207.78 415.65 C207.57 415.66 206.77 416.19 206.00 416.83 C204.86 417.78 204.33 418.00 203.12 418.00 C201.47 418.00 199.73 418.62 199.04 419.45 C198.79 419.75 197.82 420.22 196.89 420.50 C195.96 420.78 194.79 421.39 194.29 421.87 C193.80 422.35 193.23 422.64 193.03 422.52 C192.41 422.14 192.61 417.98 193.34 415.89 C194.37 412.98 194.94 409.85 195.11 406.16 C195.24 403.57 195.46 402.39 196.10 400.95 C197.23 398.40 197.67 396.14 197.67 392.86 C197.67 390.13 198.15 388.01 199.50 384.85 C199.88 383.97 200.15 381.98 200.33 378.85 C200.57 374.73 200.72 373.86 201.64 371.58 C202.55 369.35 202.73 368.39 202.96 364.56 C203.19 360.81 203.37 359.81 204.12 358.17 C204.61 357.11 205.27 356.04 205.59 355.79 C205.91 355.55 207.05 355.35 208.17 355.34 C209.27 355.33 210.77 355.18 211.50 355.01 C213.58 354.52 230.47 353.88 251.17 353.50 C256.85 353.40 263.00 353.16 264.83 352.97 C269.16 352.53 274.52 350.89 275.67 349.66 C276.58 348.69 278.99 347.33 279.81 347.33 C280.51 347.33 280.78 348.67 280.59 351.11 C280.46 352.65 280.16 353.58 279.39 354.79 C278.83 355.69 278.18 357.26 277.97 358.29 C277.75 359.32 277.15 360.84 276.64 361.67 C276.14 362.49 275.62 363.92 275.49 364.83 C275.19 367.00 274.74 367.67 272.71 368.97 C271.26 369.91 270.68 370.07 268.27 370.20 C266.75 370.28 264.30 370.50 262.83 370.69 C261.37 370.87 249.07 371.10 235.50 371.20 C207.13 371.40 209.35 371.12 208.93 374.48 C208.79 375.52 208.53 376.93 208.34 377.61 C208.16 378.28 208.00 379.74 208.00 380.86 C208.00 383.46 207.44 386.46 206.63 388.25 C205.85 389.97 205.33 392.53 205.33 394.69 C205.33 395.58 204.94 397.54 204.46 399.05 C202.62 404.90 202.23 407.43 203.07 408.27 C203.92 409.12 207.01 408.33 209.24 406.68 C209.75 406.31 211.02 405.78 212.06 405.51 C213.10 405.24 214.84 404.56 215.92 403.99 C217.86 402.97 218.02 402.95 224.87 402.61 C231.56 402.28 236.13 402.36 244.88 402.96 C248.09 403.18 249.17 403.38 250.07 403.94 C250.70 404.33 252.53 404.95 254.15 405.33 C256.32 405.84 257.39 406.28 258.23 407.01 C258.88 407.58 259.74 408.00 260.26 408.01 C261.26 408.02 263.79 409.07 264.13 409.61 C264.25 409.80 265.14 410.19 266.11 410.47 C267.54 410.89 268.28 411.40 270.05 413.24 C271.24 414.48 272.50 415.95 272.85 416.50 C273.19 417.05 274.47 418.62 275.69 420.00 C276.91 421.38 278.01 422.82 278.13 423.22 C278.26 423.62 278.80 424.49 279.33 425.16 C279.86 425.83 280.47 426.93 280.69 427.61 C280.90 428.28 281.42 429.21 281.84 429.67 C282.67 430.59 282.91 431.23 283.52 434.17 C283.75 435.27 284.35 437.14 284.86 438.33 C285.78 440.48 285.79 440.57 285.80 447.67 C285.81 455.21 285.44 458.36 284.34 460.17 C284.00 460.72 283.48 462.01 283.19 463.03 C282.89 464.06 282.28 465.25 281.82 465.68 C281.37 466.11 280.83 467.07 280.63 467.81 C280.44 468.56 279.85 469.62 279.34 470.17 C278.82 470.72 278.15 471.75 277.86 472.46 C277.57 473.17 276.84 474.33 276.25 475.03 C275.65 475.73 274.49 477.16 273.67 478.22 C271.92 480.44 267.49 484.89 265.05 486.88 C264.12 487.63 262.83 488.35 262.19 488.47 C261.45 488.61 260.78 489.04 260.35 489.65 C259.81 490.40 259.31 490.65 258.02 490.83 C256.78 491.00 256.09 491.34 255.21 492.19 C254.18 493.19 253.82 493.33 252.34 493.33 C250.41 493.33 248.73 493.94 247.28 495.16 C246.56 495.77 245.89 496.00 244.86 496.00 C241.74 496.00 237.93 496.74 236.09 497.70 L234.27 498.67 L224.22 498.64 C218.69 498.62 213.74 498.48 213.23 498.33 Z M734.40 497.68 C733.90 497.13 732.94 496.09 732.25 495.36 C731.56 494.63 731.00 493.88 731.00 493.69 C731.00 493.38 729.90 492.02 726.74 488.43 C726.06 487.66 724.90 486.27 724.17 485.34 C723.43 484.42 722.23 482.92 721.50 482.02 C720.77 481.12 719.64 479.66 719.00 478.79 C718.36 477.91 717.28 476.59 716.60 475.85 C713.38 472.32 712.33 471.07 712.33 470.73 C712.33 470.52 712.03 470.20 711.66 470.00 C711.29 469.80 710.64 469.08 710.21 468.40 C709.78 467.72 708.72 466.42 707.86 465.50 C707.00 464.58 705.77 463.05 705.12 462.08 C704.47 461.12 703.80 460.33 703.64 460.33 C703.48 460.33 703.06 459.76 702.70 459.07 C702.34 458.37 701.44 457.13 700.68 456.32 C698.16 453.58 697.84 453.20 697.33 452.30 C697.06 451.81 696.31 450.79 695.67 450.04 C694.61 448.80 693.40 447.35 690.24 443.54 C689.65 442.84 688.70 441.79 688.13 441.21 C687.55 440.64 686.83 439.67 686.52 439.07 C686.22 438.46 685.75 437.88 685.49 437.78 C685.23 437.68 684.68 437.05 684.27 436.38 C683.86 435.71 682.43 433.89 681.08 432.33 C679.73 430.78 678.15 428.92 677.57 428.22 C676.98 427.51 675.94 426.32 675.25 425.58 C674.56 424.84 674.00 424.11 674.00 423.96 C674.00 423.81 673.36 422.94 672.58 422.02 C671.80 421.10 670.49 419.51 669.67 418.49 C668.84 417.46 667.12 415.38 665.83 413.86 C664.55 412.34 663.26 410.81 662.97 410.46 C662.69 410.12 661.49 408.91 660.31 407.77 C657.65 405.21 655.82 403.05 655.54 402.13 C655.42 401.74 654.80 400.96 654.17 400.39 C653.50 399.78 652.86 398.75 652.62 397.92 C652.39 397.14 652.00 396.38 651.76 396.23 C651.52 396.08 651.01 395.33 650.62 394.57 C650.23 393.80 649.37 392.63 648.71 391.97 C648.04 391.31 646.98 390.14 646.33 389.37 C645.69 388.60 644.68 387.41 644.09 386.73 C641.48 383.76 640.78 382.82 640.00 381.21 C639.29 379.74 639.02 379.49 638.10 379.40 C637.28 379.32 636.94 379.47 636.60 380.06 C636.25 380.69 636.20 390.25 636.33 432.51 L636.50 484.20 L637.83 485.80 C640.34 488.82 643.72 491.67 644.79 491.67 C645.21 491.67 646.29 492.06 647.19 492.53 C648.10 493.01 649.43 493.58 650.15 493.81 C651.83 494.35 652.36 495.11 651.59 495.88 C651.08 496.39 650.67 496.41 647.27 496.06 C643.22 495.64 620.56 495.72 616.66 496.16 C614.91 496.36 614.40 496.31 614.07 495.91 C613.40 495.11 613.97 494.35 615.52 493.96 C616.32 493.76 617.45 493.24 618.05 492.80 C618.64 492.36 619.32 492.00 619.55 492.00 C620.17 492.00 624.04 488.46 624.83 487.17 C625.20 486.57 625.80 485.65 626.17 485.13 C626.83 484.20 626.83 483.72 626.76 426.91 L626.68 369.62 L625.01 367.75 C622.72 365.18 620.52 363.43 619.24 363.15 C618.65 363.02 617.76 362.57 617.25 362.15 C616.75 361.73 615.53 361.15 614.55 360.86 C610.38 359.65 611.57 357.61 616.00 358.38 C617.03 358.56 623.57 358.66 631.00 358.61 C647.50 358.50 647.53 358.50 648.50 359.13 C648.94 359.42 649.44 360.18 649.62 360.81 C649.79 361.44 650.32 362.47 650.80 363.09 C651.28 363.72 651.67 364.40 651.67 364.60 C651.67 364.81 652.34 365.77 653.15 366.74 C656.02 370.14 656.57 370.84 657.01 371.67 C657.43 372.47 658.87 374.32 661.33 377.21 C661.97 377.96 663.02 379.22 663.67 380.00 C664.31 380.78 665.29 381.96 665.84 382.62 C666.40 383.29 667.51 384.72 668.31 385.80 C669.11 386.88 670.45 388.55 671.30 389.51 C672.14 390.47 673.43 392.04 674.17 392.99 C674.90 393.94 675.87 395.12 676.33 395.61 C676.79 396.10 677.70 397.32 678.37 398.33 C679.04 399.34 681.02 401.82 682.78 403.83 C686.97 408.63 686.59 408.23 688.85 410.36 C689.94 411.39 691.43 413.01 692.17 413.97 C692.90 414.93 694.04 416.34 694.70 417.11 C695.36 417.87 696.05 418.78 696.23 419.12 C696.61 419.82 698.26 421.78 699.91 423.49 C700.50 424.10 701.23 425.25 701.54 426.05 C701.85 426.85 702.44 427.88 702.86 428.33 C703.28 428.79 703.75 429.49 703.90 429.89 C704.05 430.28 705.25 431.78 706.57 433.22 C709.85 436.79 713.55 441.16 713.99 441.98 C714.32 442.60 718.35 447.44 720.46 449.76 C721.88 451.31 724.21 454.44 724.79 455.59 C725.10 456.18 725.91 457.04 726.59 457.50 C727.28 457.95 728.18 458.58 728.60 458.88 C729.13 459.26 729.47 459.33 729.71 459.09 C729.95 458.85 730.04 445.28 730.02 416.46 L729.98 374.17 L729.19 372.46 C728.76 371.51 728.30 370.09 728.17 369.29 C727.99 368.17 727.60 367.52 726.52 366.50 C725.74 365.77 724.96 364.90 724.78 364.56 C724.60 364.23 723.79 363.74 722.98 363.46 C722.16 363.18 721.17 362.64 720.77 362.27 C720.37 361.89 719.09 361.26 717.93 360.86 C716.35 360.32 715.83 359.98 715.83 359.51 C715.83 358.67 717.66 358.20 719.65 358.53 C721.87 358.90 747.30 358.69 750.91 358.27 C753.32 357.99 754.10 358.00 754.50 358.33 C755.68 359.31 754.53 360.57 752.10 360.96 C751.11 361.11 749.94 361.60 749.21 362.15 C748.54 362.67 747.30 363.22 746.45 363.38 C745.41 363.57 744.45 364.07 743.49 364.91 C742.71 365.60 741.68 366.44 741.20 366.77 C740.73 367.09 740.33 367.60 740.33 367.88 C740.33 368.16 739.77 369.39 739.08 370.61 L737.83 372.83 L737.75 435.33 C737.67 493.51 737.62 497.86 737.10 498.25 C736.20 498.92 735.36 498.74 734.40 497.68 Z M484.04 495.88 C483.27 494.96 483.75 494.26 485.54 493.68 C487.96 492.89 489.65 491.54 492.73 487.92 C494.92 485.34 494.83 487.91 494.83 427.00 C494.83 382.57 494.75 371.80 494.39 370.24 C494.03 368.66 493.58 367.90 491.98 366.09 C490.90 364.88 489.60 363.70 489.09 363.49 C488.58 363.27 487.51 362.55 486.72 361.88 C485.92 361.21 485.01 360.67 484.69 360.67 C483.75 360.67 482.79 359.41 483.22 358.73 C483.50 358.28 484.06 358.17 485.87 358.20 C497.08 358.34 559.36 358.31 563.50 358.15 C566.43 358.04 570.93 357.90 573.50 357.84 C576.07 357.78 578.72 357.63 579.39 357.50 C580.52 357.27 580.65 357.33 581.14 358.28 C581.60 359.16 581.67 361.19 581.67 373.49 C581.67 386.41 581.62 387.71 581.11 387.90 C580.21 388.25 577.99 384.96 577.50 382.55 C577.39 382.03 576.87 381.20 576.34 380.72 C575.81 380.23 575.08 379.13 574.71 378.28 C574.35 377.43 573.85 376.60 573.61 376.45 C573.37 376.29 572.57 375.42 571.83 374.50 C569.77 371.92 563.60 366.00 562.97 366.00 C562.66 366.00 561.52 365.52 560.45 364.94 C558.59 363.93 558.28 363.87 553.50 363.65 C550.75 363.52 541.57 363.44 533.10 363.46 C521.02 363.50 517.60 363.60 517.26 363.94 C516.92 364.28 516.83 369.79 516.83 391.38 C516.83 417.99 516.84 418.39 517.50 418.90 C518.08 419.34 519.75 419.38 530.83 419.19 C546.33 418.92 548.71 418.73 550.50 417.62 C551.24 417.16 552.36 416.59 553.00 416.34 C554.55 415.75 555.94 414.43 556.54 413.00 C556.81 412.36 557.46 411.38 557.98 410.83 C558.50 410.28 559.65 408.30 560.54 406.42 C561.65 404.10 562.35 403.01 562.73 403.00 C563.04 403.00 563.36 403.26 563.45 403.58 C563.55 403.90 563.59 413.02 563.56 423.83 L563.50 443.50 L562.62 443.60 C561.89 443.69 561.58 443.44 560.73 442.05 C560.17 441.14 559.55 439.53 559.35 438.46 C559.10 437.09 558.71 436.23 558.02 435.51 C557.49 434.96 556.81 433.88 556.51 433.13 C556.21 432.38 555.59 431.56 555.12 431.31 C554.66 431.06 553.96 430.40 553.57 429.85 C552.64 428.50 552.53 428.44 550.54 428.19 C549.60 428.06 548.31 427.60 547.67 427.16 L546.50 426.37 L532.42 426.31 C522.21 426.27 518.20 426.36 517.87 426.64 C516.75 427.57 516.67 429.70 516.67 457.82 C516.67 488.30 516.62 487.61 518.57 488.37 C519.22 488.63 522.51 488.67 529.67 488.50 C544.50 488.15 545.40 488.11 551.03 487.37 C553.86 487.00 557.89 486.60 560.00 486.48 C564.61 486.22 566.46 485.86 567.70 484.97 C568.22 484.61 569.39 484.08 570.31 483.81 C571.22 483.54 572.39 482.97 572.90 482.54 C573.41 482.11 574.36 481.50 575.00 481.18 C575.64 480.85 576.54 480.24 577.00 479.81 C580.96 476.08 582.67 474.29 582.67 473.88 C582.67 473.61 583.02 472.96 583.45 472.44 C583.89 471.92 584.55 470.89 584.93 470.14 C585.61 468.80 587.57 467.00 588.36 467.00 C588.90 467.00 588.51 470.84 587.79 472.56 C587.39 473.50 587.18 475.70 586.98 481.02 C586.71 487.86 586.27 490.79 585.34 491.78 C585.19 491.94 585.15 492.61 585.24 493.28 C585.36 494.21 585.24 494.64 584.75 495.09 C584.15 495.64 581.25 495.68 535.80 495.80 C509.24 495.87 486.82 496.03 485.98 496.16 C484.81 496.34 484.36 496.27 484.04 495.88 Z M358.67 197.09 C356.36 196.98 356.08 196.88 355.00 195.85 C354.36 195.24 353.49 194.63 353.06 194.51 C352.63 194.38 351.53 193.55 350.60 192.67 L348.92 191.06 L348.43 187.78 C348.04 185.14 348.02 183.88 348.32 181.34 C348.52 179.60 348.89 177.88 349.14 177.51 C350.37 175.66 354.26 172.05 355.40 171.68 C356.08 171.47 357.20 170.90 357.90 170.41 C359.48 169.32 362.99 168.99 364.33 169.81 C364.79 170.09 366.11 170.78 367.27 171.34 C369.42 172.38 374.00 176.52 374.00 177.42 C374.00 177.67 374.52 178.91 375.17 180.19 C376.85 183.52 376.81 185.69 375.01 189.43 C373.64 192.29 372.58 193.55 370.76 194.46 C370.17 194.76 369.31 195.41 368.86 195.90 C368.18 196.63 367.61 196.84 365.76 197.05 C364.52 197.19 362.97 197.28 362.33 197.25 C361.69 197.22 360.04 197.15 358.67 197.09 Z M665.12 196.64 C664.55 196.47 663.83 195.96 663.53 195.50 C663.18 194.97 662.45 194.54 661.47 194.29 C660.36 194.01 659.68 193.56 658.90 192.59 C658.31 191.86 657.43 191.05 656.93 190.80 C655.68 190.15 655.34 188.61 655.43 183.83 C655.50 179.90 655.52 179.81 656.55 178.50 C657.13 177.77 657.69 176.86 657.80 176.48 C658.06 175.61 662.20 172.00 662.94 172.00 C663.25 171.99 664.45 171.69 665.61 171.33 C666.78 170.96 668.41 170.67 669.25 170.67 C673.34 170.67 679.39 174.20 680.56 177.27 C680.87 178.10 681.51 179.22 681.96 179.76 C682.68 180.61 682.82 181.16 682.94 183.63 C683.06 186.12 682.96 186.77 682.24 188.56 C680.99 191.62 679.59 193.47 677.91 194.26 C677.11 194.64 676.26 195.19 676.01 195.49 C675.00 196.71 673.80 197.00 669.93 196.97 C667.86 196.95 665.70 196.80 665.12 196.64 Z M431.93 166.87 C431.37 166.28 430.69 166.03 429.35 165.91 C427.94 165.79 427.39 165.57 426.85 164.92 C426.48 164.47 425.78 163.84 425.31 163.54 C424.83 163.24 424.24 162.58 423.99 162.08 C423.73 161.58 423.12 160.78 422.63 160.30 C421.81 159.51 421.72 159.14 421.50 155.91 C421.37 153.98 421.31 151.26 421.38 149.87 C421.50 147.61 421.61 147.25 422.54 146.26 C423.11 145.66 423.66 144.90 423.78 144.58 C423.89 144.25 424.50 143.68 425.13 143.31 C425.76 142.94 426.51 142.27 426.80 141.83 C427.09 141.39 427.89 140.87 428.58 140.68 C430.71 140.07 435.66 139.88 438.17 140.31 C440.38 140.68 440.61 140.80 442.67 142.81 C446.38 146.43 446.50 146.62 447.03 150.03 C447.31 151.88 447.31 153.35 447.00 156.15 C446.56 160.18 446.40 160.64 444.87 162.27 C442.14 165.18 441.49 165.66 439.76 166.05 C438.80 166.26 437.76 166.71 437.45 167.05 C437.02 167.53 436.41 167.67 434.80 167.67 C433.02 167.67 432.58 167.54 431.93 166.87 Z M590.93 165.90 C589.35 165.62 588.43 165.24 587.77 164.63 C587.25 164.15 586.59 163.62 586.30 163.46 C586.01 163.30 585.09 162.40 584.26 161.46 C582.88 159.89 582.72 159.52 582.38 157.12 C581.88 153.71 581.86 150.94 582.31 148.69 C582.74 146.54 582.96 146.18 585.65 143.26 C587.17 141.60 588.06 140.92 589.04 140.66 C591.01 140.13 598.23 140.16 599.89 140.71 C601.62 141.28 604.42 143.88 605.32 145.75 C605.69 146.53 606.37 147.83 606.83 148.64 C607.54 149.87 607.67 150.53 607.66 152.80 C607.65 156.22 607.27 157.84 606.23 158.95 C605.77 159.44 605.30 160.32 605.18 160.90 C605.05 161.49 604.57 162.32 604.10 162.74 C603.63 163.16 602.86 163.90 602.37 164.40 C601.89 164.89 601.08 165.45 600.56 165.65 C599.11 166.19 593.42 166.34 590.93 165.90 Z M514.27 152.69 C512.12 152.53 511.56 152.36 510.77 151.63 C510.26 151.15 509.43 150.66 508.93 150.54 C508.00 150.32 505.38 147.88 503.38 145.37 C502.37 144.10 502.24 143.67 502.02 141.06 C501.89 139.47 501.89 137.16 502.01 135.95 C502.20 134.12 502.44 133.49 503.37 132.33 C505.87 129.22 506.89 128.21 508.00 127.69 C508.64 127.40 509.91 126.71 510.81 126.18 C512.26 125.31 512.75 125.20 514.90 125.24 C516.96 125.28 517.62 125.45 519.13 126.31 C520.11 126.87 521.54 127.55 522.32 127.83 C524.15 128.47 526.64 131.22 527.42 133.45 C527.74 134.37 528.30 135.75 528.67 136.50 C529.64 138.52 529.54 140.62 528.33 143.00 C527.78 144.09 527.33 145.22 527.33 145.52 C527.33 145.81 526.40 146.99 525.25 148.14 C523.73 149.67 522.84 150.29 521.95 150.46 C521.20 150.60 520.53 150.99 520.20 151.49 C519.76 152.16 517.61 153.14 517.00 152.94 C516.91 152.91 515.68 152.80 514.27 152.69 Z" fill="#24190A" fill-rule="evenodd" filter="url(#grave)"/>
<path d="M512 549L526 563L512 577L498 563Z" fill="#D8AE52" stroke="#2B1E0C" stroke-width="2.4" filter="url(#grave)"/>
<path d="M452 692H574" stroke="#24190A" stroke-width="2.6"/>

</svg>